<svg xmlns="http://www.w3.org/2000/svg" xmlns:xlink="http://www.w3.org/1999/xlink" viewBox="0 0 58.51 58.51"><defs><style>.cls-1{fill:none;}.cls-2{clip-path:url(#clip-path);}.cls-3{fill:#e7eced;}.cls-4{fill:#556080;}</style><clipPath id="clip-path" transform="translate(0 -0.77)"><rect class="cls-1" width="59.29" height="60.61"/></clipPath></defs><title>avatar1</title><g id="Layer_2" data-name="Layer 2"><g id="Layer_1-2" data-name="Layer 1"><g class="cls-2"><path class="cls-3" d="M20.55,46.65l-8.73,4.76a8,8,0,0,0-1.4,1A29.24,29.24,0,0,0,48,52.5a7.75,7.75,0,0,0-1.54-1L37.1,46.8a3.57,3.57,0,0,1-2-3.19V39.94A12.91,12.91,0,0,0,36,38.81,21.43,21.43,0,0,0,38.92,33,2.94,2.94,0,0,0,41,30.16V26.24a2.91,2.91,0,0,0-1-2.17V18.41s1.16-8.8-10.77-8.8-10.76,8.8-10.76,8.8v5.66a2.92,2.92,0,0,0-1,2.17v3.91a3,3,0,0,0,1.35,2.46,19.44,19.44,0,0,0,3.54,7.32v3.58a3.57,3.57,0,0,1-1.86,3.13Zm0,0" transform="translate(0 -0.77)"/><path class="cls-4" d="M29.76.78A29.24,29.24,0,0,0,10.43,52.4a8.34,8.34,0,0,1,1.38-1l8.73-4.76a3.56,3.56,0,0,0,1.85-3.13V39.94a19.44,19.44,0,0,1-3.54-7.33,2.92,2.92,0,0,1-1.35-2.46V26.24a2.93,2.93,0,0,1,1-2.17V18.41S17.33,9.6,29.26,9.6,40,18.41,40,18.41v5.66a2.93,2.93,0,0,1,1,2.17v3.92A2.94,2.94,0,0,1,38.92,33,21.59,21.59,0,0,1,36,38.81c-.32.45-.62.83-.88,1.14v3.67a3.56,3.56,0,0,0,2,3.19l9.35,4.67a7.63,7.63,0,0,1,1.53,1A29.25,29.25,0,0,0,29.76.78Zm0,0" transform="translate(0 -0.77)"/></g></g></g></svg>