<svg xmlns="http://www.w3.org/2000/svg" xmlns:xlink="http://www.w3.org/1999/xlink" viewBox="0 0 81.95 81.95"><defs><style>.cls-1{fill:none;}.cls-2{clip-path:url(#clip-path);}.cls-3{fill:#e7eced;}.cls-4{fill:#556080;}</style><clipPath id="clip-path" transform="translate(0 -1.08)"><rect class="cls-1" width="83.04" height="84.9"/></clipPath></defs><title>avatar</title><g id="Layer_2" data-name="Layer 2"><g id="Layer_1-2" data-name="Layer 1"><g class="cls-2"><path class="cls-3" d="M28.78,65.34,16.56,72a11.21,11.21,0,0,0-2,1.4,41,41,0,0,0,52.61.14,10.85,10.85,0,0,0-2.15-1.44L52,65.55a5,5,0,0,1-2.76-4.47V55.95a18.09,18.09,0,0,0,1.24-1.59,30,30,0,0,0,4.07-8.2,4.11,4.11,0,0,0,2.92-3.91V36.76a4.08,4.08,0,0,0-1.37-3V25.79S57.69,13.46,41,13.46,25.91,25.79,25.91,25.79v7.93a4.09,4.09,0,0,0-1.37,3v5.48a4.13,4.13,0,0,0,1.9,3.45,27.23,27.23,0,0,0,5,10.25v5a5,5,0,0,1-2.6,4.38Zm0,0" transform="translate(0 -1.08)"/><path class="cls-4" d="M41.68,1.09a40.95,40.95,0,0,0-27.07,72.3A11.68,11.68,0,0,1,16.55,72l12.23-6.67A5,5,0,0,0,31.38,61v-5a27.23,27.23,0,0,1-5-10.26,4.09,4.09,0,0,1-1.9-3.44V36.75a4.11,4.11,0,0,1,1.37-3V25.79S24.28,13.45,41,13.45,56.06,25.79,56.06,25.79v7.93a4.1,4.1,0,0,1,1.37,3v5.49a4.12,4.12,0,0,1-2.91,3.91,30.24,30.24,0,0,1-4.07,8.2c-.45.63-.87,1.17-1.24,1.59v5.13A5,5,0,0,0,52,65.55l13.1,6.54a10.69,10.69,0,0,1,2.15,1.44A41,41,0,0,0,41.68,1.09Zm0,0" transform="translate(0 -1.08)"/></g></g></g></svg>