<svg xmlns="http://www.w3.org/2000/svg" viewBox="0 0 23.13 28.2"><defs><style>.cls-1{fill:#6e2302;}</style></defs><title>baohanh</title><g id="Layer_2" data-name="Layer 2"><g id="Layer_1-2" data-name="Layer 1"><path class="cls-1" d="M11.51,3.3a.55.55,0,1,0-.5-.55A.55.55,0,0,0,11.51,3.3Z"/><path class="cls-1" d="M22.58,3.3A2.76,2.76,0,0,1,19.83.55.55.55,0,0,0,19.28,0H3.86A.55.55,0,0,0,3.3.55,2.76,2.76,0,0,1,.55,3.3.55.55,0,0,0,0,3.86v9A16,16,0,0,0,11.41,28.18l.16,0,.16,0A16,16,0,0,0,23.13,12.84v-9A.55.55,0,0,0,22.58,3.3ZM22,12.84A14.81,14.81,0,0,1,11.57,27.07,14.89,14.89,0,0,1,1.1,12.84V4.37A3.86,3.86,0,0,0,4.37,1.1h14.4A3.86,3.86,0,0,0,22,4.37Z"/><path class="cls-1" d="M18,2.53a.55.55,0,0,0-.5-.33H13.77a.55.55,0,1,0,0,1.1h3.42a6.06,6.06,0,0,0,2.64,2.64v6.9a12.55,12.55,0,0,1-8.26,11.9A12.55,12.55,0,0,1,3.3,12.84V5.95A6.06,6.06,0,0,0,5.95,3.3H9.36a.55.55,0,0,0,0-1.1H5.6a.55.55,0,0,0-.5.33A5,5,0,0,1,2.53,5.09a.55.55,0,0,0-.33.5v7.25a13.71,13.71,0,0,0,9.18,13,.55.55,0,0,0,.37,0,13.71,13.71,0,0,0,9.18-13V5.6a.55.55,0,0,0-.33-.5A5,5,0,0,1,18,2.53Z"/><path class="cls-1" d="M6.61,13a5,5,0,1,0,5-5A5,5,0,0,0,6.61,13Zm8.81,0a3.86,3.86,0,1,1-3.86-3.86A3.86,3.86,0,0,1,15.42,13Z"/><path class="cls-1" d="M10.3,13.16a.55.55,0,0,0-.78.78l1.1,1.1a.55.55,0,0,0,.78,0l2.75-2.75a.55.55,0,0,0-.78-.78L11,13.87Z"/></g></g></svg>