<svg xmlns="http://www.w3.org/2000/svg" viewBox="0 0 37 37"><defs><style>.cls-1{fill:#6e2302;}.cls-2{fill:none;}</style></defs><title>baohanh1</title><g id="Layer_2" data-name="Layer 2"><g id="Layer_1-2" data-name="Layer 1"><path class="cls-1" d="M18.44,7.7a.55.55,0,1,0-.5-.55A.55.55,0,0,0,18.44,7.7Z"/><path class="cls-1" d="M29.52,7.7A2.76,2.76,0,0,1,26.76,5a.55.55,0,0,0-.55-.55H10.79a.55.55,0,0,0-.55.55A2.76,2.76,0,0,1,7.48,7.7a.55.55,0,0,0-.55.55v9A16,16,0,0,0,18.34,32.58l.16,0,.16,0A16,16,0,0,0,30.07,17.24v-9A.55.55,0,0,0,29.52,7.7ZM29,17.24A14.81,14.81,0,0,1,18.5,31.47,14.89,14.89,0,0,1,8,17.24V8.77A3.86,3.86,0,0,0,11.3,5.5H25.7A3.86,3.86,0,0,0,29,8.77Z"/><path class="cls-1" d="M25,6.93a.55.55,0,0,0-.5-.33H20.7a.55.55,0,1,0,0,1.1h3.42a6.06,6.06,0,0,0,2.64,2.64v6.9a12.55,12.55,0,0,1-8.26,11.9,12.55,12.55,0,0,1-8.26-11.9v-6.9A6.06,6.06,0,0,0,12.88,7.7H16.3a.55.55,0,1,0,0-1.1H12.53a.55.55,0,0,0-.5.33A5,5,0,0,1,9.47,9.49a.55.55,0,0,0-.33.5v7.25a13.71,13.71,0,0,0,9.18,13,.55.55,0,0,0,.37,0,13.71,13.71,0,0,0,9.18-13V10a.55.55,0,0,0-.33-.5A5,5,0,0,1,25,6.93Z"/><path class="cls-1" d="M13.54,17.4a5,5,0,1,0,5-5A5,5,0,0,0,13.54,17.4Zm8.81,0a3.86,3.86,0,1,1-3.86-3.86A3.86,3.86,0,0,1,22.36,17.4Z"/><path class="cls-1" d="M17.24,17.56a.55.55,0,0,0-.78.78l1.1,1.1a.55.55,0,0,0,.78,0l2.75-2.75a.55.55,0,0,0-.78-.78l-2.36,2.36Z"/><rect class="cls-2" width="37" height="37"/></g></g></svg>