<svg xmlns="http://www.w3.org/2000/svg" viewBox="0 0 18.55 18.97"><defs><style>.cls-1{fill:#666;}</style></defs><title>CALENDA</title><g id="Layer_2" data-name="Layer 2"><g id="Layer_1-2" data-name="Layer 1"><path class="cls-1" d="M6.7,10.46A.43.43,0,0,0,6.27,10H4.77a.43.43,0,0,0-.43.43V12a.43.43,0,0,0,.43.43h1.5A.43.43,0,0,0,6.7,12Zm0,0"/><path class="cls-1" d="M10.45,10.46A.43.43,0,0,0,10,10H8.52a.43.43,0,0,0-.43.43V12a.43.43,0,0,0,.43.43H10a.43.43,0,0,0,.43-.43Zm0,0"/><path class="cls-1" d="M14.21,10.46a.43.43,0,0,0-.43-.43h-1.5a.43.43,0,0,0-.43.43V12a.43.43,0,0,0,.43.43h1.5a.43.43,0,0,0,.43-.43Zm0,0"/><path class="cls-1" d="M6.7,14.22a.43.43,0,0,0-.43-.43H4.77a.43.43,0,0,0-.43.43v1.5a.43.43,0,0,0,.43.43h1.5a.43.43,0,0,0,.43-.43Zm0,0"/><path class="cls-1" d="M10.45,14.22a.43.43,0,0,0-.43-.43H8.52a.43.43,0,0,0-.43.43v1.5a.43.43,0,0,0,.43.43H10a.43.43,0,0,0,.43-.43Zm0,0"/><path class="cls-1" d="M14.21,14.22a.43.43,0,0,0-.43-.43h-1.5a.43.43,0,0,0-.43.43v1.5a.43.43,0,0,0,.43.43h1.5a.43.43,0,0,0,.43-.43Zm0,0"/><path class="cls-1" d="M16.9,2.11V4.41A1.87,1.87,0,0,1,15,6.28H13.83a1.88,1.88,0,0,1-1.89-1.87V2.1H6.6v2.3A1.88,1.88,0,0,1,4.71,6.28H3.53A1.87,1.87,0,0,1,1.65,4.41V2.11A1.71,1.71,0,0,0,0,3.81V17.26A1.71,1.71,0,0,0,1.7,19H16.85a1.71,1.71,0,0,0,1.7-1.71V3.81a1.71,1.71,0,0,0-1.65-1.7Zm-.55,14.31a.73.73,0,0,1-.73.73H2.9a.74.74,0,0,1-.73-.73V9.47a.74.74,0,0,1,.73-.74H15.61a.74.74,0,0,1,.73.74Zm0,0"/><path class="cls-1" d="M3.52,5H4.7a.64.64,0,0,0,.64-.64V.64A.64.64,0,0,0,4.7,0H3.52a.64.64,0,0,0-.64.64V4.41A.64.64,0,0,0,3.52,5Zm0,0"/><path class="cls-1" d="M13.82,5H15a.64.64,0,0,0,.64-.64V.64A.64.64,0,0,0,15,0H13.82a.64.64,0,0,0-.64.64V4.41a.64.64,0,0,0,.64.64Zm0,0"/></g></g></svg>