<svg xmlns="http://www.w3.org/2000/svg" viewBox="0 0 35.1 19.1"><defs><style>.cls-1{fill:#6e2302;}</style></defs><title>chitiet</title><g id="Layer_2" data-name="Layer 2"><g id="Layer_1-2" data-name="Layer 1"><path class="cls-1" d="M17.55,19.1c-3.95,0-8.2-1.54-12.29-4.46a31.08,31.08,0,0,1-5-4.44,1,1,0,0,1,0-1.3,31.08,31.08,0,0,1,5-4.44C9.36,1.54,13.6,0,17.55,0s8.2,1.54,12.29,4.46a31.08,31.08,0,0,1,5,4.44,1,1,0,0,1,0,1.3,31.08,31.08,0,0,1-5,4.44c-4.09,2.92-8.34,4.46-12.29,4.46ZM2.35,9.55a31.3,31.3,0,0,0,4.1,3.5c2.61,1.85,6.65,4.07,11.09,4.07S26,14.91,28.64,13.05a31.32,31.32,0,0,0,4.11-3.5,31.33,31.33,0,0,0-4.11-3.5C26,4.2,22,2,17.55,2S9.07,4.2,6.46,6.05a31.33,31.33,0,0,0-4.1,3.5Zm0,0"/><path class="cls-1" d="M17.55,15.71A6.15,6.15,0,1,1,21.6,4.92,1,1,0,0,1,20.3,6.41a4.17,4.17,0,1,0,1.42,3.14,1,1,0,0,1,2,0,6.16,6.16,0,0,1-6.15,6.15Zm0,0"/><path class="cls-1" d="M17.55,11.54a2,2,0,1,1,2-2,2,2,0,0,1-2,2Zm0,0"/></g></g></svg>