<svg xmlns="http://www.w3.org/2000/svg" viewBox="0 0 21.9 20.98"><defs><style>.cls-1{fill:#6e2302;}</style></defs><title>danhgia2</title><g id="Layer_2" data-name="Layer 2"><g id="Layer_1-2" data-name="Layer 1"><path class="cls-1" d="M21.43,9.51a1.57,1.57,0,0,0-.87-2.68l-5.3-.77a.7.7,0,0,1-.52-.38L12.36.88a1.57,1.57,0,0,0-2.82,0L7.17,5.68a.69.69,0,0,1-.52.38l-5.3.77A1.57,1.57,0,0,0,.47,9.51l3.84,3.74a.7.7,0,0,1,.2.61l-.91,5.28a1.55,1.55,0,0,0,.34,1.27,1.59,1.59,0,0,0,1.94.38l4.74-2.49a.71.71,0,0,1,.65,0L16,20.8a1.54,1.54,0,0,0,.73.18A1.57,1.57,0,0,0,18,20.42a1.54,1.54,0,0,0,.34-1.27l-.91-5.28a.7.7,0,0,1,.2-.61Zm0,0"/></g></g></svg>