<svg xmlns="http://www.w3.org/2000/svg" viewBox="0 0 22.4 21.48"><defs><style>.cls-1{fill:none;stroke:#6e2302;stroke-miterlimit:10;stroke-width:0.5px;}</style></defs><title>danhgia</title><g id="Layer_2" data-name="Layer 2"><g id="Layer_1-2" data-name="Layer 1"><path class="cls-1" d="M21.68,9.76a1.57,1.57,0,0,0-.87-2.68l-5.3-.77A.7.7,0,0,1,15,5.93l-2.37-4.8a1.57,1.57,0,0,0-2.82,0L7.42,5.93a.69.69,0,0,1-.52.38l-5.3.77A1.57,1.57,0,0,0,.72,9.76L4.56,13.5a.7.7,0,0,1,.2.61l-.91,5.28a1.55,1.55,0,0,0,.34,1.27A1.59,1.59,0,0,0,6.14,21l4.74-2.49a.71.71,0,0,1,.65,0L16.27,21a1.54,1.54,0,0,0,.73.18,1.57,1.57,0,0,0,1.21-.57,1.54,1.54,0,0,0,.34-1.27l-.91-5.28a.7.7,0,0,1,.2-.61Zm0,0"/></g></g></svg>