<svg xmlns="http://www.w3.org/2000/svg" viewBox="0 0 17.25 17.25"><defs><style>.cls-1{fill:#ead9c7;}</style></defs><title>diachi</title><g id="Layer_2" data-name="Layer 2"><g id="Layer_1-2" data-name="Layer 1"><path class="cls-1" d="M8.63,7.48a2,2,0,1,0-2-2,2,2,0,0,0,2,2ZM8.63,4A1.44,1.44,0,1,1,7.19,5.46,1.44,1.44,0,0,1,8.63,4Zm0,0"/><path class="cls-1" d="M8.57,15.74,13,9.37a6.28,6.28,0,0,0-.51-7.76,5.51,5.51,0,0,0-7.8,0,6.28,6.28,0,0,0-.52,7.75ZM5.08,2a4.94,4.94,0,0,1,7,0,5.68,5.68,0,0,1,.45,7l-3.94,5.7L4.62,9a5.67,5.67,0,0,1,.46-7Zm0,0"/><path class="cls-1" d="M12.11,12.37a.29.29,0,1,0-.07.57c3,.36,4.63,1.31,4.63,1.87,0,.78-3.06,1.87-8,1.87s-8-1.09-8-1.87c0-.56,1.61-1.51,4.63-1.87a.29.29,0,1,0-.07-.57C2.11,12.72,0,13.73,0,14.81s3,2.44,8.63,2.44,8.63-1.23,8.63-2.44-2.11-2.08-5.14-2.44Zm0,0"/></g></g></svg>