<svg xmlns="http://www.w3.org/2000/svg" viewBox="0 0 18 18"><defs><style>.cls-1{fill:#6c492e;}</style></defs><title>diachi1</title><g id="Layer_2" data-name="Layer 2"><g id="Layer_1-2" data-name="Layer 1"><path class="cls-1" d="M9,7.8A2.1,2.1,0,1,0,6.9,5.7,2.1,2.1,0,0,0,9,7.8ZM9,4.2A1.5,1.5,0,1,1,7.5,5.7,1.5,1.5,0,0,1,9,4.2Zm0,0"/><path class="cls-1" d="M8.95,16.43l4.6-6.65A6.55,6.55,0,0,0,13,1.69a5.75,5.75,0,0,0-8.14,0,6.55,6.55,0,0,0-.54,8.09ZM5.3,2.11a5.15,5.15,0,0,1,7.29,0,5.92,5.92,0,0,1,.47,7.32L8.95,15.37l-4.12-6A5.92,5.92,0,0,1,5.3,2.11Zm0,0"/><path class="cls-1" d="M12.64,12.9a.3.3,0,1,0-.07.6c3.15.37,4.83,1.37,4.83,2,0,.81-3.19,1.95-8.4,1.95S.6,16.26.6,15.45c0-.58,1.68-1.58,4.83-2a.3.3,0,1,0-.07-.6C2.21,13.27,0,14.32,0,15.45S3.09,18,9,18s9-1.28,9-2.55-2.21-2.18-5.36-2.55Zm0,0"/></g></g></svg>