<svg xmlns="http://www.w3.org/2000/svg" viewBox="0 0 15.38 15.45"><defs><style>.cls-1{fill:#ead9c7;}</style></defs><title>dienthoai</title><g id="Layer_2" data-name="Layer 2"><g id="Layer_1-2" data-name="Layer 1"><path class="cls-1" d="M12.95,9.21a1.61,1.61,0,0,0-1.17-.54,1.67,1.67,0,0,0-1.18.53L9.5,10.29l-.27-.14L8.89,10A11.88,11.88,0,0,1,6,7.38,7,7,0,0,1,5.11,5.9c.28-.26.55-.53.8-.79l.29-.29a1.59,1.59,0,0,0,0-2.39l-.94-.94-.32-.33C4.73.94,4.51.72,4.28.51A1.64,1.64,0,0,0,3.13,0,1.69,1.69,0,0,0,1.95.51h0L.77,1.7A2.53,2.53,0,0,0,0,3.31,6.07,6.07,0,0,0,.46,5.88,14.9,14.9,0,0,0,3.1,10.29a16.28,16.28,0,0,0,5.42,4.25,8.45,8.45,0,0,0,3,.9h.22a2.61,2.61,0,0,0,2-.86v0a7.84,7.84,0,0,1,.61-.63l.45-.45a1.73,1.73,0,0,0,.52-1.2,1.66,1.66,0,0,0-.53-1.19Zm1.24,3.64h0c-.13.15-.27.28-.42.42a9.1,9.1,0,0,0-.67.69,1.67,1.67,0,0,1-1.3.55h-.16a7.51,7.51,0,0,1-2.7-.81,15.37,15.37,0,0,1-5.11-4A14,14,0,0,1,1.34,5.55,4.94,4.94,0,0,1,.95,3.39a1.59,1.59,0,0,1,.48-1L2.61,1.18A.79.79,0,0,1,3.13.93a.74.74,0,0,1,.51.24h0c.21.2.41.4.62.62l.33.34.94.94a.66.66,0,0,1,0,1.07l-.3.3c-.29.3-.57.57-.87.84l0,0a.71.71,0,0,0-.18.79v0A7.58,7.58,0,0,0,5.31,8h0a12.7,12.7,0,0,0,3.07,2.8,4.68,4.68,0,0,0,.43.23l.34.18,0,0a.75.75,0,0,0,.34.09.74.74,0,0,0,.53-.24l1.18-1.18a.78.78,0,0,1,.52-.26.7.7,0,0,1,.5.25l1.91,1.91a.68.68,0,0,1,0,1.08Zm0,0"/></g></g></svg>