<svg xmlns="http://www.w3.org/2000/svg" viewBox="0 0 54.15 39.28"><defs><style>.cls-1{fill:#6b492e;}</style></defs><title>dinhduong</title><g id="Layer_2" data-name="Layer 2"><g id="Layer_1-2" data-name="Layer 1"><path class="cls-1" d="M44.17,12.86a24,24,0,0,0-12-6.54A5.24,5.24,0,1,0,22,6.32a24.18,24.18,0,0,0-19,22.59H51.22A24,24,0,0,0,44.17,12.86ZM28.22,11.39a2.54,2.54,0,0,1,2.77-2,2.61,2.61,0,0,1-1.42,4.93A2.21,2.21,0,0,1,28.22,11.39ZM25,9.05A2.33,2.33,0,0,1,27,11.57,2.33,2.33,0,0,1,25,14.09a2.33,2.33,0,0,1-2.06-2.52A2.33,2.33,0,0,1,25,9.05Zm-6.31,6.41A2.31,2.31,0,0,1,20.6,12.8a2.41,2.41,0,0,1,2.32,2.41A2.32,2.32,0,0,1,21,17.87,2.41,2.41,0,0,1,18.68,15.46Zm13,10.07c-2,0-3.05-.54-4.63-.54s-2.55.39-4.54.39a2.76,2.76,0,0,1-2.7-2.89c0-1.09.61-1.83,2.06-2.89a13.56,13.56,0,0,0,2.85-2.72A2.82,2.82,0,0,1,27,15.79a2.59,2.59,0,0,1,2.26.93,16.67,16.67,0,0,0,3.26,3.11c1.6,1.24,1.95,1.86,1.95,2.94A2.78,2.78,0,0,1,31.68,25.53Zm2.08-6.72a2.07,2.07,0,0,1-2.22-2.25A2.28,2.28,0,0,1,33.66,14a2.57,2.57,0,0,1,2.22,2.52A2,2,0,0,1,33.76,18.81Z"/><rect class="cls-1" y="32.09" width="54.15" height="7.19"/></g></g></svg>