<svg xmlns="http://www.w3.org/2000/svg" viewBox="0 0 37 37"><defs><style>.cls-1{fill:#6e2302;}.cls-2{fill:none;}</style></defs><title>dt</title><g id="Layer_2" data-name="Layer 2"><g id="Layer_1-2" data-name="Layer 1"><path class="cls-1" d="M27.72,22.29a3.12,3.12,0,0,0-2.27-1,3.23,3.23,0,0,0-2.29,1L21,24.4l-.52-.27c-.24-.12-.47-.23-.66-.36a23,23,0,0,1-5.52-5,13.59,13.59,0,0,1-1.81-2.86c.55-.5,1.06-1,1.56-1.53l.56-.57a3.08,3.08,0,0,0,0-4.64L12.83,7.32l-.62-.64c-.4-.42-.82-.84-1.26-1.25a3.17,3.17,0,0,0-2.25-1,3.28,3.28,0,0,0-2.28,1h0L4.12,7.75a4.9,4.9,0,0,0-1.45,3.12,11.75,11.75,0,0,0,.86,5A28.86,28.86,0,0,0,8.66,24.4a31.55,31.55,0,0,0,10.51,8.23,16.37,16.37,0,0,0,5.9,1.74h.42a5.05,5.05,0,0,0,3.87-1.66l0,0a15.18,15.18,0,0,1,1.17-1.21c.29-.28.58-.56.87-.86a3.34,3.34,0,0,0,1-2.32,3.22,3.22,0,0,0-1-2.3Zm2.4,7.06h0c-.26.28-.53.54-.82.82A17.62,17.62,0,0,0,28,31.51a3.23,3.23,0,0,1-2.52,1.07h-.31A14.54,14.54,0,0,1,20,31a29.78,29.78,0,0,1-9.9-7.75,27.22,27.22,0,0,1-4.83-8A9.57,9.57,0,0,1,4.48,11,3.08,3.08,0,0,1,5.4,9L7.69,6.74a1.52,1.52,0,0,1,1-.48,1.44,1.44,0,0,1,1,.47l0,0c.41.38.8.78,1.21,1.2l.64.65,1.83,1.83a1.28,1.28,0,0,1,0,2.08l-.58.58c-.56.58-1.1,1.11-1.68,1.64l0,0a1.37,1.37,0,0,0-.35,1.52l0,.06a14.7,14.7,0,0,0,2.17,3.53h0a24.61,24.61,0,0,0,6,5.42,9.06,9.06,0,0,0,.82.45c.24.12.47.23.66.36l.08,0a1.45,1.45,0,0,0,.66.17,1.43,1.43,0,0,0,1-.46l2.29-2.29a1.52,1.52,0,0,1,1-.5,1.36,1.36,0,0,1,1,.49l3.71,3.71a1.33,1.33,0,0,1,0,2.1Zm0,0"/><path class="cls-1" d="M19.78,10.17a8.63,8.63,0,0,1,7,7,.9.9,0,0,0,.89.75h.15a.91.91,0,0,0,.74-1,10.43,10.43,0,0,0-8.5-8.5.91.91,0,0,0-1,.74.9.9,0,0,0,.73,1Zm0,0"/><path class="cls-1" d="M34.35,16.63a17.18,17.18,0,0,0-14-14,.9.9,0,1,0-.29,1.78A15.34,15.34,0,0,1,32.56,16.93a.9.9,0,0,0,.89.75h.15a.89.89,0,0,0,.74-1Zm0,0"/><rect class="cls-2" width="37" height="37"/></g></g></svg>