<svg xmlns="http://www.w3.org/2000/svg" viewBox="0 0 16.36 16.43"><defs><style>.cls-1{fill:#6c492e;}</style></defs><title>dt1</title><g id="Layer_2" data-name="Layer 2"><g id="Layer_1-2" data-name="Layer 1"><path class="cls-1" d="M13.77,9.79a1.72,1.72,0,0,0-1.24-.57,1.77,1.77,0,0,0-1.26.57L10.1,10.95l-.28-.15-.36-.2a12.64,12.64,0,0,1-3-2.76,7.46,7.46,0,0,1-1-1.57c.3-.28.58-.56.85-.84l.31-.31a1.69,1.69,0,0,0,0-2.55l-1-1-.34-.35C5,1,4.8.76,4.56.54A1.74,1.74,0,0,0,3.32,0,1.8,1.8,0,0,0,2.07.54h0L.81,1.81A2.69,2.69,0,0,0,0,3.52,6.45,6.45,0,0,0,.49,6.25a15.85,15.85,0,0,0,2.82,4.7,17.32,17.32,0,0,0,5.77,4.52,9,9,0,0,0,3.24,1h.23a2.77,2.77,0,0,0,2.12-.91v0a8.33,8.33,0,0,1,.64-.67l.48-.47a1.84,1.84,0,0,0,.56-1.27,1.77,1.77,0,0,0-.57-1.26Zm1.32,3.88h0c-.14.15-.29.29-.45.45a9.68,9.68,0,0,0-.71.74,1.77,1.77,0,0,1-1.38.59h-.17a8,8,0,0,1-2.87-.86,16.35,16.35,0,0,1-5.43-4.25A14.94,14.94,0,0,1,1.42,5.91,5.25,5.25,0,0,1,1,3.6a1.69,1.69,0,0,1,.51-1.09L2.77,1.25A.84.84,0,0,1,3.33,1a.79.79,0,0,1,.54.26h0c.22.21.44.43.66.66l.35.36,1,1a.7.7,0,0,1,0,1.14l-.32.32c-.31.32-.6.61-.92.9l0,0a.75.75,0,0,0-.19.84v0A8.07,8.07,0,0,0,5.65,8.46h0a13.51,13.51,0,0,0,3.27,3,5,5,0,0,0,.45.25l.36.2,0,0a.8.8,0,0,0,.36.09.79.79,0,0,0,.56-.25L12,10.49a.83.83,0,0,1,.56-.28.75.75,0,0,1,.53.27l2,2a.73.73,0,0,1,0,1.15Zm0,0"/></g></g></svg>