<svg xmlns="http://www.w3.org/2000/svg" viewBox="0 0 18.05 17.95"><defs><style>.cls-1{fill:#6c492e;}</style></defs><title>edit1</title><g id="Layer_2" data-name="Layer 2"><g id="Layer_1-2" data-name="Layer 1"><path class="cls-1" d="M16.65,11.27a.45.45,0,0,0-.45.45v4a1.35,1.35,0,0,1-1.35,1.35H2.25A1.35,1.35,0,0,1,.9,15.71V4A1.35,1.35,0,0,1,2.25,2.65h4a.45.45,0,0,0,0-.9h-4A2.25,2.25,0,0,0,0,4V15.71A2.25,2.25,0,0,0,2.25,18H14.86a2.25,2.25,0,0,0,2.25-2.25v-4a.45.45,0,0,0-.45-.45Zm0,0"/><path class="cls-1" d="M16.93.59a2,2,0,0,0-2.86,0l-8,8a.45.45,0,0,0-.12.2L4.88,12.61a.45.45,0,0,0,.55.55l3.81-1.05a.45.45,0,0,0,.2-.12l8-8a2,2,0,0,0,0-2.86ZM7,8.9l6.56-6.56,2.12,2.12L9.14,11Zm-.42.85L8.3,11.44,6,12.09ZM16.82,3.34l-.48.48L14.22,1.7l.48-.48a1.12,1.12,0,0,1,1.59,0l.53.53a1.13,1.13,0,0,1,0,1.59Zm0,0"/></g></g></svg>