<svg xmlns="http://www.w3.org/2000/svg" viewBox="0 0 24.46 18.63"><defs><style>.cls-1{fill:#b2b2b2;}</style></defs><title>email</title><g id="Layer_2" data-name="Layer 2"><g id="Layer_1-2" data-name="Layer 1"><path class="cls-1" d="M24.46,2.15A2.15,2.15,0,0,0,22.31,0H2.15A2.15,2.15,0,0,0,0,2.15V16.48a2.15,2.15,0,0,0,2.15,2.15H22.31a2.15,2.15,0,0,0,2.15-2.15Zm-23,.29,6.9,6.84-6.9,6.9Zm10.84,8.73L2.45,1.43H22Zm-2.92-.88,2.42,2.4a.72.72,0,0,0,1,0l2.36-2.36L22,17.2H2.45Zm6.81-1L23,2.45V16.19Z"/></g></g></svg>