<svg xmlns="http://www.w3.org/2000/svg" viewBox="0 0 39.63 39.63"><defs><style>.cls-1{fill:#ead9c7;}</style></defs><title>fb</title><g id="Layer_2" data-name="Layer 2"><g id="Layer_1-2" data-name="Layer 1"><path class="cls-1" d="M19.81,0A19.81,19.81,0,1,0,39.63,19.81,19.84,19.84,0,0,0,19.81,0Zm0,36.82a17,17,0,1,1,17-17A17,17,0,0,1,19.81,36.82Z"/><path class="cls-1" d="M17.07,13.5v2.92H14.8v3.7h2.27V31h4.36V20.07h3l.32-3.66H21.44V14.33c0-.86.17-1.2,1-1.2h2.36V9.33h-3C18.54,9.33,17.07,10.76,17.07,13.5Z"/></g></g></svg>