<svg xmlns="http://www.w3.org/2000/svg" viewBox="0 0 30.11 30.11"><defs><style>.cls-1{fill:#4267b2;}</style></defs><title>fb1</title><g id="Layer_2" data-name="Layer 2"><g id="Layer_1-2" data-name="Layer 1"><path class="cls-1" d="M15.06,0A15.06,15.06,0,1,0,30.11,15.06,15.07,15.07,0,0,0,15.06,0Zm0,28A12.92,12.92,0,1,1,28,15.06,12.92,12.92,0,0,1,15.06,28Z"/><path class="cls-1" d="M13,10.26v2.22H11.25v2.82H13v8.27h3.32v-8.3H18.6l.25-2.78H16.29V10.89c0-.66.13-.91.77-.91h1.79V7.09h-2.3C14.09,7.09,13,8.17,13,10.26Z"/></g></g></svg>