<svg xmlns="http://www.w3.org/2000/svg" viewBox="0 0 31.61 20"><defs><style>.cls-1{fill:#fff;}.cls-2{fill:#a6a8ab;}.cls-3{fill:#ec1c24;}</style></defs><title>g+</title><g id="Layer_2" data-name="Layer 2"><g id="Layer_1-2" data-name="Layer 1"><rect class="cls-1" x="0.48" y="0.48" width="30.64" height="19.03" rx="3.87" ry="3.87"/><path class="cls-2" d="M27.25,20H4.35A4.36,4.36,0,0,1,0,15.65V4.35A4.36,4.36,0,0,1,4.35,0h22.9a4.36,4.36,0,0,1,4.36,4.35V15.65A4.36,4.36,0,0,1,27.25,20ZM4.35,1A3.39,3.39,0,0,0,1,4.35V15.65A3.39,3.39,0,0,0,4.35,19h22.9a3.39,3.39,0,0,0,3.39-3.39V4.35A3.39,3.39,0,0,0,27.25,1Z"/><path class="cls-3" d="M10.42,4.73h2.7V5.6H11.59a2.67,2.67,0,0,1,.58.71,2,2,0,0,1,.21.9,2.11,2.11,0,0,1-.47,1.38,3.15,3.15,0,0,1-1.3.91,3.93,3.93,0,0,1-1.45.33l-1,0a1,1,0,0,0-.65.23.74.74,0,0,0-.26.56.57.57,0,0,0,.23.47,1.29,1.29,0,0,0,.77.18l1.48,0a5.8,5.8,0,0,1,2.48.36,1.67,1.67,0,0,1,1,1.57,1.91,1.91,0,0,1-.45,1.23,2.59,2.59,0,0,1-1.17.82A7.67,7.67,0,0,1,9,15.58a9.4,9.4,0,0,1-2-.19,2.84,2.84,0,0,1-1.27-.54,1,1,0,0,1-.39-.73.89.89,0,0,1,.3-.66A2.47,2.47,0,0,1,6.74,13a1.57,1.57,0,0,1-1.11-1.41,1.6,1.6,0,0,1,.45-1.06,3.64,3.64,0,0,1,1.44-.9,3.57,3.57,0,0,1-1.66-1,2.28,2.28,0,0,1-.51-1.47,2.38,2.38,0,0,1,1-1.89,3.72,3.72,0,0,1,2.47-.8A4.8,4.8,0,0,1,10.42,4.73Zm-2,8.43a3.2,3.2,0,0,0-1.16.13.74.74,0,0,0-.49.67.91.91,0,0,0,.5.73,3.77,3.77,0,0,0,1.9.33,4.86,4.86,0,0,0,1.88-.29c.45-.2.68-.47.68-.83a.45.45,0,0,0-.13-.33,1.26,1.26,0,0,0-.7-.33A19.64,19.64,0,0,0,8.43,13.16Zm.5-8.25a1,1,0,0,0-.84.46A3.59,3.59,0,0,0,7.75,7.3a2.81,2.81,0,0,0,.34,1.62,1,1,0,0,0,.8.44,1.05,1.05,0,0,0,.86-.44,2.93,2.93,0,0,0,.34-1.7,3.47,3.47,0,0,0-.38-1.94A.9.9,0,0,0,8.93,4.91Z"/><path class="cls-3" d="M17,13V10.58H14.43v-1H17V7.21h1.09V9.58h2.56v1H18.09V13Z"/><path class="cls-3" d="M26.27,14.37H25.11V7.56A5.91,5.91,0,0,1,24,8.29a7.86,7.86,0,0,1-1.21.55v-1a7.1,7.1,0,0,0,1.69-1,4.07,4.07,0,0,0,1-1.16h.75Z"/></g></g></svg>