<svg xmlns="http://www.w3.org/2000/svg" viewBox="0 0 30.11 30.11"><defs><style>.cls-1{fill:red;}</style></defs><title>g+1</title><g id="Layer_2" data-name="Layer 2"><g id="Layer_1-2" data-name="Layer 1"><path class="cls-1" d="M15.06,0A15.06,15.06,0,1,0,30.11,15.06,15.07,15.07,0,0,0,15.06,0Zm0,28A12.92,12.92,0,1,1,28,15.06,12.92,12.92,0,0,1,15.06,28Z"/><path class="cls-1" d="M12.23,14.2v1.58H16a3.64,3.64,0,0,1-3.61,3.1,4.32,4.32,0,1,1,2.94-7.48l1.22-1a5.92,5.92,0,1,0-4.15,10.13,5.36,5.36,0,0,0,5.41-5.66V14.2Z"/><rect class="cls-1" x="19.65" y="14.26" width="2.27" height="1.45"/><rect class="cls-1" x="23.38" y="14.26" width="2.27" height="1.45"/><rect class="cls-1" x="21.93" y="11.99" width="1.45" height="2.27"/><rect class="cls-1" x="21.93" y="15.71" width="1.45" height="2.27"/></g></g></svg>