<svg xmlns="http://www.w3.org/2000/svg" viewBox="0 0 30 27"><defs><style>.cls-1{fill:#6b492e;}</style></defs><title>giohang</title><g id="Layer_2" data-name="Layer 2"><g id="Layer_1-2" data-name="Layer 1"><path class="cls-1" d="M12.58,21.87a2.57,2.57,0,1,0,2.64,2.57A2.61,2.61,0,0,0,12.58,21.87Zm0,3.7a1.13,1.13,0,1,1,1.17-1.13A1.15,1.15,0,0,1,12.58,25.57Z"/><path class="cls-1" d="M21.83,21.87a2.57,2.57,0,1,0,2.64,2.57A2.61,2.61,0,0,0,21.83,21.87Zm0,3.7A1.13,1.13,0,1,1,23,24.43,1.15,1.15,0,0,1,21.83,25.57Z"/><path class="cls-1" d="M11.93,9.79H22.48a.72.72,0,1,0,0-1.43H11.93a.72.72,0,1,0,0,1.43Z"/><path class="cls-1" d="M21.91,12.08H12.5a.72.72,0,1,0,0,1.43h9.41a.72.72,0,1,0,0-1.43Z"/><path class="cls-1" d="M29.67,5.16a1.48,1.48,0,0,0-1.14-.53H5.58L5.12,2.45a1.44,1.44,0,0,0-.86-1L1,.06a.74.74,0,0,0-1,.37.71.71,0,0,0,.38.94L3.68,2.74,7.24,19.57a1.47,1.47,0,0,0,1.44,1.14H26.33a.72.72,0,1,0,0-1.43H8.68l-.43-2H26.47a1.47,1.47,0,0,0,1.44-1.14L30,6.36A1.4,1.4,0,0,0,29.67,5.16ZM26.47,15.8H7.95L5.89,6.07H28.53Z"/></g></g></svg>