<svg xmlns="http://www.w3.org/2000/svg" viewBox="0 0 39.63 39.63"><defs><style>.cls-1{fill:#ead9c7;}.cls-2{fill:#efebe3;}</style></defs><title>google</title><g id="Layer_2" data-name="Layer 2"><g id="Layer_1-2" data-name="Layer 1"><path class="cls-1" d="M19.81,0A19.81,19.81,0,1,0,39.63,19.81,19.84,19.84,0,0,0,19.81,0Zm0,36.82a17,17,0,1,1,17-17A17,17,0,0,1,19.81,36.82Z"/><path class="cls-1" d="M16.1,18.69v2.07H21a4.79,4.79,0,0,1-4.75,4.07A5.68,5.68,0,1,1,20.1,15l1.6-1.38a7.79,7.79,0,1,0-5.47,13.34c4.13,0,7.12-3.15,7.12-7.45v-.8Z"/><rect class="cls-2" x="25.87" y="18.77" width="2.99" height="1.91"/><rect class="cls-2" x="30.76" y="18.77" width="2.99" height="1.91"/><rect class="cls-2" x="28.86" y="15.78" width="1.91" height="2.99"/><rect class="cls-2" x="28.86" y="20.68" width="1.91" height="2.99"/></g></g></svg>