<svg xmlns="http://www.w3.org/2000/svg" viewBox="0 0 56.74 38.95"><defs><style>.cls-1{fill:#6b492e;}</style></defs><title>hocvien</title><g id="Layer_2" data-name="Layer 2"><g id="Layer_1-2" data-name="Layer 1"><path class="cls-1" d="M54.94,29.84V11.49l1.4-.55-1.4-.54-.55-.21L28.17,0,0,10.94l10.37,4h0l1.05.4,2.41,1h0l14.53,5.29,14.39-5.36h0L45.95,15v0l7.68-3V29.58l-2.09,4.36,2.68,5,2.52-5Zm-.73,6.08-1-2.23,1-2.34,1,2.37Zm0,0"/><path class="cls-1" d="M28.27,23.85l-13.19-4.8-.69,3.47a1.88,1.88,0,0,0-.22.86c0,2.73,10.41,9.54,13.63,9.54S42.57,26,42.57,23.39a3.1,3.1,0,0,0-.09-.64c0-.16-.08-.35-.12-.62l-.68-3.19-13.3,5Zm0,0"/></g></g></svg>