<svg xmlns="http://www.w3.org/2000/svg" viewBox="0 0 30 26"><defs><style>.cls-1{fill:#6b492e;}</style></defs><title>home</title><g id="Layer_2" data-name="Layer 2"><g id="Layer_1-2" data-name="Layer 1"><path class="cls-1" d="M25.05,12.74a.82.82,0,0,0-.86.8V24.43H18.06V20a.82.82,0,0,0-.83-.78H12.79a.85.85,0,0,0-.88.78v4.45H5.8V13.9a.82.82,0,0,0-.86-.77.81.81,0,0,0-.83.77V25.23a.81.81,0,0,0,.83.77h7.86a.81.81,0,0,0,.83-.77V20.78h2.74v4.45a.82.82,0,0,0,.86.77h7.83a.81.81,0,0,0,.83-.77V13.54a.81.81,0,0,0-.83-.8Zm0,0"/><path class="cls-1" d="M29.76,13.36,22.93,7V2.74a.84.84,0,0,0-.88-.8.81.81,0,0,0-.83.8V5.47L15.59.25A.85.85,0,0,0,15,0a.88.88,0,0,0-.61.25L.26,13.27a.71.71,0,0,0,0,1.1.86.86,0,0,0,1.2,0L15,1.91,28.53,14.49a.88.88,0,0,0,.61.2,1,1,0,0,0,.61-.2.78.78,0,0,0,0-1.13Zm0,0"/></g></g></svg>