<svg xmlns="http://www.w3.org/2000/svg" viewBox="0 0 22.46 20.76"><defs><style>.cls-1{fill:#666;}</style></defs><title>hour</title><g id="Layer_2" data-name="Layer 2"><g id="Layer_1-2" data-name="Layer 1"><path class="cls-1" d="M22.41,8.77A.47.47,0,0,0,22,8.49h-1.4a10.38,10.38,0,1,0-1.22,7.08.94.94,0,1,0-1.63-.94,8.5,8.5,0,1,1,.92-6.14H17.27a.47.47,0,0,0-.43.27.46.46,0,0,0,.07.5l2.36,2.83a.47.47,0,0,0,.72,0l2.36-2.83a.47.47,0,0,0,.07-.5Zm0,0"/><path class="cls-1" d="M10.38,2.36a.94.94,0,0,0-.94.94V9a1.65,1.65,0,0,0,.94,3,1.62,1.62,0,0,0,.7-.16l3.28,1.89a.93.93,0,0,0,.47.13.94.94,0,0,0,.47-1.76L12,10.24A1.65,1.65,0,0,0,11.32,9V3.3a1,1,0,0,0-.94-.94Zm0,8.73a.71.71,0,1,1,.71-.71.71.71,0,0,1-.71.71Zm0,0"/></g></g></svg>