<svg xmlns="http://www.w3.org/2000/svg" viewBox="0 0 39.63 39.63"><defs><style>.cls-1{fill:#ead9c7;}</style></defs><title>instagram</title><g id="Layer_2" data-name="Layer 2"><g id="Layer_1-2" data-name="Layer 1"><path class="cls-1" d="M19.81,0A19.81,19.81,0,1,0,39.63,19.81,19.84,19.84,0,0,0,19.81,0Zm0,36.82a17,17,0,1,1,17-17A17,17,0,0,1,19.81,36.82Z"/><path class="cls-1" d="M29.14,13.73a5,5,0,0,0-2.87-2.87,7.22,7.22,0,0,0-2.39-.46c-1,0-1.38-.06-4.05-.06s-3,0-4.05.06a7.22,7.22,0,0,0-2.39.46,5,5,0,0,0-2.87,2.87,7.21,7.21,0,0,0-.46,2.39c0,1-.06,1.38-.06,4.05s0,3,.06,4.05a7.21,7.21,0,0,0,.46,2.39,5,5,0,0,0,2.87,2.87,7.22,7.22,0,0,0,2.39.46c1,0,1.38.06,4.05.06s3,0,4.05-.06a7.22,7.22,0,0,0,2.39-.46,5,5,0,0,0,2.87-2.87,7.21,7.21,0,0,0,.46-2.39c0-1,.06-1.38.06-4.05s0-3-.06-4.05A7.21,7.21,0,0,0,29.14,13.73ZM27.83,24.14A5.44,5.44,0,0,1,27.49,26a3.25,3.25,0,0,1-1.87,1.87,5.44,5.44,0,0,1-1.83.34c-1,0-1.35.06-4,.06s-2.94,0-4-.06A5.44,5.44,0,0,1,14,27.83,3.25,3.25,0,0,1,12.17,26a5.44,5.44,0,0,1-.34-1.83c0-1-.06-1.35-.06-4s0-2.94.06-4a5.44,5.44,0,0,1,.34-1.83A3.25,3.25,0,0,1,14,12.51a5.44,5.44,0,0,1,1.83-.34c1,0,1.35-.06,4-.06s2.94,0,4,.06a5.44,5.44,0,0,1,1.83.34,3.25,3.25,0,0,1,1.87,1.87,5.44,5.44,0,0,1,.34,1.83c0,1,.06,1.35.06,4S27.88,23.1,27.83,24.14Z"/><path class="cls-1" d="M19.83,15.12a5,5,0,1,0,5,5A5,5,0,0,0,19.83,15.12Zm0,8.32a3.28,3.28,0,1,1,3.28-3.28A3.28,3.28,0,0,1,19.83,23.45Z"/><circle class="cls-1" cx="25.08" cy="14.92" r="1.18"/></g></g></svg>