<svg xmlns="http://www.w3.org/2000/svg" viewBox="0 0 24.6 24.6"><defs><style>.cls-1{fill:#fff5ee;}</style></defs><title>lich_white0</title><g id="Layer_2" data-name="Layer 2"><g id="Layer_1-2" data-name="Layer 1"><path class="cls-1" d="M3.08,3.84V.77a.77.77,0,1,1,1.54,0V3.84a.77.77,0,1,1-1.54,0Zm13.07.77a.77.77,0,0,0,.77-.77V.77a.77.77,0,1,0-1.54,0V3.84a.77.77,0,0,0,.77.77ZM24.6,18.45a6.15,6.15,0,1,1-6.15-6.15,6.15,6.15,0,0,1,6.15,6.15Zm-1.54,0a4.61,4.61,0,1,0-4.61,4.61,4.62,4.62,0,0,0,4.61-4.61ZM6.15,9.23H3.08V12.3H6.15ZM3.08,16.91H6.15V13.84H3.08ZM7.69,12.3h3.08V9.23H7.69Zm0,4.61h3.08V13.84H7.69ZM1.54,18.3V7.69H18.45v3.08H20v-6a1.68,1.68,0,0,0-1.67-1.69h-.64v.77a1.54,1.54,0,1,1-3.08,0V3.08H5.38v.77a1.54,1.54,0,1,1-3.08,0V3.08H1.67A1.68,1.68,0,0,0,0,4.77V18.3A1.68,1.68,0,0,0,1.67,20h9.1V18.45H1.67a.15.15,0,0,1-.13-.15Zm13.84-6V9.23H12.3V12.3Zm5.38,6.15H18.45V16.15a.77.77,0,1,0-1.54,0v3.08a.77.77,0,0,0,.77.77h3.08a.77.77,0,0,0,0-1.54Zm0,0"/></g></g></svg>