<svg xmlns="http://www.w3.org/2000/svg" viewBox="0 0 15.6 15.6"><defs><style>.cls-1{fill:#6c492e;}</style></defs><title>lich</title><g id="Layer_2" data-name="Layer 2"><g id="Layer_1-2" data-name="Layer 1"><path class="cls-1" d="M2,2.44v-2a.49.49,0,1,1,1,0v2a.49.49,0,1,1-1,0Zm8.29.49a.49.49,0,0,0,.49-.49v-2a.49.49,0,1,0-1,0v2a.49.49,0,0,0,.49.49ZM15.6,11.7a3.9,3.9,0,1,1-3.9-3.9,3.9,3.9,0,0,1,3.9,3.9Zm-1,0a2.93,2.93,0,1,0-2.93,2.93,2.93,2.93,0,0,0,2.93-2.93ZM3.9,5.85H2v2h2ZM2,10.73h2v-2H2ZM4.88,7.8h2v-2h-2Zm0,2.93h2v-2h-2ZM1,11.6V4.88H11.7v2h1V3A1.06,1.06,0,0,0,11.62,2h-.41v.49a1,1,0,1,1-2,0V2H3.41v.49a1,1,0,1,1-2,0V2H1.06A1.06,1.06,0,0,0,0,3V11.6a1.07,1.07,0,0,0,1.06,1.07H6.83v-1H1.06A.09.09,0,0,1,1,11.6ZM9.75,7.8v-2h-2v2Zm3.41,3.9H11.7V10.24a.49.49,0,1,0-1,0v2a.49.49,0,0,0,.49.49h2a.49.49,0,0,0,0-1Zm0,0"/></g></g></svg>