<svg xmlns="http://www.w3.org/2000/svg" viewBox="0 0 249.22 59.09"><defs><style>.cls-1{fill:#fff5ee;}</style></defs><title>logo_footer</title><g id="Layer_2" data-name="Layer 2"><g id="Layer_1-2" data-name="Layer 1"><path class="cls-1" d="M22.29,49.1l-3,10C7.46,55.51-4.44,37.83,1.64,21.27,7,6.6,23.09-2.47,38.23,1.57S63.46,21.63,59.91,36.94L28.36,28.05,23.09,46.57l11.55,3.64,2.57-8.33,18.32,5.48L55.21,49,45.3,46.81l-2.66,8.26Zm-13.78-10a6.87,6.87,0,0,0,6.79,7A5.6,5.6,0,0,0,21,40.36a6.78,6.78,0,0,0-6.53-7.24A5.85,5.85,0,0,0,8.51,39.09ZM38.33,19.62c0-4-2.68-6.75-6.52-6.7a5.71,5.71,0,0,0-5.74,5.81,6.91,6.91,0,0,0,6.58,6.93C36.23,25.73,38.34,23.49,38.33,19.62Zm1.55,3.09c0,3.53,3.06,7,6.4,7.09,3,.11,5.88-2.88,5.83-6.17a6.77,6.77,0,0,0-6.27-6.74A5.56,5.56,0,0,0,39.88,22.71ZM25.22,26.85c0-4-2.62-7-6.23-7.09a6,6,0,0,0-5.89,6.14,7,7,0,0,0,6.67,6.87C23,32.76,25.19,30.39,25.22,26.85Z"/><path class="cls-1" d="M90,41.55H83q-4.63,0-7.07-2.48a9,9,0,0,1-2.44-6.66V15.28h3.8V33.69a7.23,7.23,0,0,0,.51,2.91,5.33,5.33,0,0,0,1.31,1.87,4.53,4.53,0,0,0,1.83,1,7.72,7.72,0,0,0,2.06.28h7Z"/><path class="cls-1" d="M109.25,41.48h-3.82v-.1l0-3.5a11.47,11.47,0,0,1-1.1,1.78,5.63,5.63,0,0,1-1.1,1.1,3.38,3.38,0,0,1-1.21.56,5.9,5.9,0,0,1-1.37.15,10.16,10.16,0,0,1-3.7-.6,6.28,6.28,0,0,1-2.51-1.73A7.55,7.55,0,0,1,93,36.42a13.65,13.65,0,0,1-.56-3.63A13.65,13.65,0,0,1,93,29.15a7.55,7.55,0,0,1,1.48-2.74A6.44,6.44,0,0,1,97,24.66a9.91,9.91,0,0,1,3.7-.61,10.87,10.87,0,0,1,3.88.61,6.69,6.69,0,0,1,2.63,1.75,7.16,7.16,0,0,1,1.52,2.74,13.91,13.91,0,0,1,.56,3.63v8.7Zm-3.79-9.33a10.88,10.88,0,0,0-.33-2.91,4.77,4.77,0,0,0-.94-1.87,3.43,3.43,0,0,0-1.47-1,5.17,5.17,0,0,0-1.89-.26,5.43,5.43,0,0,0-1.88.25,3.29,3.29,0,0,0-1.47,1,4.68,4.68,0,0,0-.94,1.88,11.31,11.31,0,0,0-.32,2.93v1.23a11.41,11.41,0,0,0,.32,2.93,4.61,4.61,0,0,0,.94,1.88,3.31,3.31,0,0,0,1.47,1,5.42,5.42,0,0,0,1.88.25,3.72,3.72,0,0,0,3.35-1.82,9.57,9.57,0,0,0,1.27-5.38Z"/><path class="cls-1" d="M124.43,29.35a4.75,4.75,0,0,0-.79-1.87,2.94,2.94,0,0,0-1.32-1,4.69,4.69,0,0,0-1.82-.26,5.43,5.43,0,0,0-1.88.25,3.29,3.29,0,0,0-1.47,1,4.68,4.68,0,0,0-.94,1.88,11.31,11.31,0,0,0-.32,2.93v9.19h-3.8v-8.1a10,10,0,0,1,2.13-6.73,7.65,7.65,0,0,1,6.13-2.46,9.78,9.78,0,0,1,3.76.65,6.39,6.39,0,0,1,2.53,1.83,7.42,7.42,0,0,1,1.42,2.88,15.18,15.18,0,0,1,.44,3.83v8.1h-3.8V32.25A13.79,13.79,0,0,0,124.43,29.35Z"/><path class="cls-1" d="M147.76,41.55h-7q-4.63,0-7.07-2.48a9,9,0,0,1-2.44-6.66V15.28h3.81V33.69a7.24,7.24,0,0,0,.51,2.91,5.32,5.32,0,0,0,1.31,1.87,4.53,4.53,0,0,0,1.83,1,7.73,7.73,0,0,0,2.06.28h7Z"/><path class="cls-1" d="M167,41.48h-3.82v-.1l0-3.5a11.47,11.47,0,0,1-1.1,1.78,5.62,5.62,0,0,1-1.1,1.1,3.37,3.37,0,0,1-1.21.56,5.91,5.91,0,0,1-1.37.15,10.16,10.16,0,0,1-3.7-.6,6.28,6.28,0,0,1-2.51-1.73,7.56,7.56,0,0,1-1.48-2.74,13.65,13.65,0,0,1-.56-3.63,13.65,13.65,0,0,1,.56-3.63,7.56,7.56,0,0,1,1.48-2.74,6.44,6.44,0,0,1,2.51-1.75,9.91,9.91,0,0,1,3.7-.61,10.87,10.87,0,0,1,3.88.61,6.7,6.7,0,0,1,2.63,1.75,7.16,7.16,0,0,1,1.52,2.74,13.94,13.94,0,0,1,.56,3.63v8.7Zm-3.79-9.33a10.88,10.88,0,0,0-.33-2.91,4.77,4.77,0,0,0-.94-1.87,3.43,3.43,0,0,0-1.47-1,5.17,5.17,0,0,0-1.89-.26,5.43,5.43,0,0,0-1.88.25,3.28,3.28,0,0,0-1.47,1,4.68,4.68,0,0,0-.94,1.88,11.32,11.32,0,0,0-.32,2.93v1.23a11.42,11.42,0,0,0,.32,2.93,4.6,4.6,0,0,0,.94,1.88,3.31,3.31,0,0,0,1.47,1,5.42,5.42,0,0,0,1.88.25,3.72,3.72,0,0,0,3.35-1.82,9.58,9.58,0,0,0,1.27-5.38Z"/><path class="cls-1" d="M182.18,29.35a4.76,4.76,0,0,0-.79-1.87,2.94,2.94,0,0,0-1.32-1,4.69,4.69,0,0,0-1.82-.26,5.43,5.43,0,0,0-1.88.25,3.29,3.29,0,0,0-1.48,1,4.69,4.69,0,0,0-.93,1.88,11.29,11.29,0,0,0-.32,2.93v9.19h-3.81v-8.1A10,10,0,0,1,172,26.62a7.65,7.65,0,0,1,6.13-2.46,9.78,9.78,0,0,1,3.76.65,6.39,6.39,0,0,1,2.53,1.83,7.42,7.42,0,0,1,1.42,2.88,15.16,15.16,0,0,1,.44,3.83v8.1h-3.81V32.25A13.82,13.82,0,0,0,182.18,29.35Z"/><path class="cls-1" d="M217.08,17.58a9.12,9.12,0,0,1,0,12.78,9.5,9.5,0,0,1-6.8,2.32,10.71,10.71,0,0,1-5.9-1.47V41.48h-3.81V24a8.75,8.75,0,0,1,2.62-6.4q2.49-2.34,7.09-2.34A9.46,9.46,0,0,1,217.08,17.58Zm-12.7,7.51a6.5,6.5,0,0,0,.6,2.69,4.87,4.87,0,0,0,3.15,2.61,6.72,6.72,0,0,0,2,.23,6.94,6.94,0,0,0,2.06-.25,4.82,4.82,0,0,0,1.87-1,5,5,0,0,0,1.34-1.88,7.44,7.44,0,0,0,.51-2.93V23.35a7.5,7.5,0,0,0-.51-2.93,4.71,4.71,0,0,0-3.21-2.86,6.94,6.94,0,0,0-2.06-.25,6.55,6.55,0,0,0-2.06.26,5,5,0,0,0-1.85,1,4.94,4.94,0,0,0-1.33,1.87,7.37,7.37,0,0,0-.51,2.92Z"/><path class="cls-1" d="M224.21,33.88a11.82,11.82,0,0,0,.38,2,5.66,5.66,0,0,0,.89,1.85,4.94,4.94,0,0,0,1.6,1.39,5,5,0,0,0,2.47.55,13.09,13.09,0,0,0,3.3-.58l.26,1.14q-1,.49-2.07.91a5.13,5.13,0,0,1-2.22.35,8.07,8.07,0,0,1-3.22-.63,7.72,7.72,0,0,1-2.55-1.77,8.54,8.54,0,0,1-1.73-2.7,9.92,9.92,0,0,1-.71-3.46,9,9,0,0,1,.6-3.27,8.61,8.61,0,0,1,1.67-2.71A8.19,8.19,0,0,1,225.4,25a8,8,0,0,1,3.18-.77,8.21,8.21,0,0,1,3.3.72,7.71,7.71,0,0,1,2.55,1.85A8.05,8.05,0,0,1,236,29.55a8.65,8.65,0,0,1,.49,3.27q0,.17,0,.5t0,.55Zm2.5-7.16a4.33,4.33,0,0,0-1.26,1.22,6.22,6.22,0,0,0-.81,1.73,10.21,10.21,0,0,0-.39,2h8.66a7.27,7.27,0,0,0-1.43-4.16,3.8,3.8,0,0,0-3-1.3h-.06A3.16,3.16,0,0,0,226.71,26.72Z"/><path class="cls-1" d="M249.22,26h-3.84V41.52h-3.66V26h-3.87v-2h3.87V15.28h3.66v8.67h3.84Z"/><path class="cls-1" d="M79.54,47.54a3.29,3.29,0,0,1,0,4.74,3.76,3.76,0,0,1-2.63.86,4.27,4.27,0,0,1-2.28-.54v3.81H73.16v-6.5a3.19,3.19,0,0,1,1-2.37,4,4,0,0,1,2.74-.87A3.75,3.75,0,0,1,79.54,47.54Zm-4.91,2.79a2.34,2.34,0,0,0,.23,1,1.87,1.87,0,0,0,.52.63,2,2,0,0,0,.69.33,2.68,2.68,0,0,0,.77.09,2.78,2.78,0,0,0,.79-.09,1.9,1.9,0,0,0,.72-.36,1.84,1.84,0,0,0,.52-.7,2.66,2.66,0,0,0,.2-1.09v-.46a2.68,2.68,0,0,0-.2-1.09,1.81,1.81,0,0,0-.52-.7,1.93,1.93,0,0,0-.72-.36,2.82,2.82,0,0,0-.79-.09,2.63,2.63,0,0,0-.79.1,2,2,0,0,0-.71.37,1.84,1.84,0,0,0-.51.69,2.64,2.64,0,0,0-.2,1.08Z"/><path class="cls-1" d="M82.3,53.59a4.24,4.24,0,0,0,.15.72,2.08,2.08,0,0,0,.35.69,1.89,1.89,0,0,0,.62.52,2,2,0,0,0,1,.21,5.24,5.24,0,0,0,1.28-.21l.1.42c-.26.12-.53.24-.8.34a2.06,2.06,0,0,1-.86.13,3.23,3.23,0,0,1-1.25-.23,3,3,0,0,1-1-.66,3.16,3.16,0,0,1-.67-1,3.56,3.56,0,0,1-.27-1.29A3.21,3.21,0,0,1,81.14,52,3.16,3.16,0,0,1,84,50a3.29,3.29,0,0,1,1.27.27A2.93,2.93,0,0,1,86.87,52a3.1,3.1,0,0,1,.19,1.21s0,.1,0,.19,0,.15,0,.21Zm1-2.66a1.65,1.65,0,0,0-.49.45,2.26,2.26,0,0,0-.31.64,3.66,3.66,0,0,0-.15.76h3.35a2.63,2.63,0,0,0-.55-1.54A1.49,1.49,0,0,0,84,50.76h0A1.26,1.26,0,0,0,83.26,50.93Z"/><path class="cls-1" d="M92,50.66H90.48v5.77H89.06V50.66h-1.5V49.9h1.5V46.69h1.41V49.9H92Z"/><path class="cls-1" d="M95.08,55.77a1.6,1.6,0,0,0,.46-.21,1,1,0,0,0,.32-.33.87.87,0,0,0,.12-.45.69.69,0,0,0-.12-.41,1.25,1.25,0,0,0-.32-.31,2.4,2.4,0,0,0-.45-.24l-.54-.21-.73-.29a2.9,2.9,0,0,1-.65-.38,1.77,1.77,0,0,1-.47-.56,1.68,1.68,0,0,1-.18-.81,1.41,1.41,0,0,1,.19-.72,1.7,1.7,0,0,1,.52-.55A2.47,2.47,0,0,1,94,50a3.27,3.27,0,0,1,.88-.12l.64,0A3.34,3.34,0,0,1,96,50a2.32,2.32,0,0,1,.46.17l.47.27a2.62,2.62,0,0,1,0,.45q0,.19,0,.38L96.66,51a2.82,2.82,0,0,0-.4-.22,3,3,0,0,0-.54-.18,5.3,5.3,0,0,0-.73-.11,2,2,0,0,0-.48.06,1.44,1.44,0,0,0-.41.17,1,1,0,0,0-.3.28.64.64,0,0,0-.12.38.67.67,0,0,0,.12.4,1.33,1.33,0,0,0,.33.31,2.58,2.58,0,0,0,.47.25l.54.23.71.3a3,3,0,0,1,.65.39,1.83,1.83,0,0,1,.46.55,1.56,1.56,0,0,1,.18.77,1.68,1.68,0,0,1-.22.88,1.84,1.84,0,0,1-.58.6,2.57,2.57,0,0,1-.8.34,3.77,3.77,0,0,1-.88.11q-.49,0-1-.08a6.21,6.21,0,0,1-1-.22l-.11-.88a2.64,2.64,0,0,0,.93.44,4,4,0,0,0,1.06.08A2.08,2.08,0,0,0,95.08,55.77Z"/><path class="cls-1" d="M99.35,55.15a1,1,0,0,1,.19.53,1,1,0,0,1-.19.52.64.64,0,0,1-.55.22.69.69,0,0,1-.58-.22.89.89,0,0,1-.18-.52.92.92,0,0,1,.18-.53.68.68,0,0,1,.58-.23A.64.64,0,0,1,99.35,55.15Z"/><path class="cls-1" d="M109.32,47.66v8.75h-1.47V47.66h-3.24v-1h7.94v1Z"/><path class="cls-1" d="M113.47,53.59a4.24,4.24,0,0,0,.15.72A2.08,2.08,0,0,0,114,55a1.89,1.89,0,0,0,.62.52,2,2,0,0,0,1,.21,5.24,5.24,0,0,0,1.28-.21l.1.42c-.26.12-.53.24-.8.34a2.06,2.06,0,0,1-.86.13,3.23,3.23,0,0,1-1.25-.23,3,3,0,0,1-1-.66,3.16,3.16,0,0,1-.67-1,3.56,3.56,0,0,1-.27-1.29,3.21,3.21,0,0,1,.23-1.22,3.16,3.16,0,0,1,2.85-2,3.29,3.29,0,0,1,1.27.27A2.93,2.93,0,0,1,118,52a3.1,3.1,0,0,1,.19,1.21s0,.1,0,.19,0,.15,0,.21Zm1-2.66a1.65,1.65,0,0,0-.49.45,2.26,2.26,0,0,0-.31.64,3.66,3.66,0,0,0-.15.76h3.35a2.63,2.63,0,0,0-.55-1.54,1.49,1.49,0,0,0-1.15-.48h0A1.26,1.26,0,0,0,114.43,50.93Z"/><path class="cls-1" d="M125.83,56.42h-1.48V55.08a4.27,4.27,0,0,1-.43.66,2.14,2.14,0,0,1-.43.41,1.35,1.35,0,0,1-.47.21,2.37,2.37,0,0,1-.53.06,4.08,4.08,0,0,1-1.43-.22,2.44,2.44,0,0,1-1-.64,2.78,2.78,0,0,1-.57-1,4.28,4.28,0,0,1,0-2.7,2.78,2.78,0,0,1,.57-1,2.49,2.49,0,0,1,1-.65,4,4,0,0,1,1.43-.23,4.35,4.35,0,0,1,1.5.23,2.6,2.6,0,0,1,1,.65,2.63,2.63,0,0,1,.59,1,5,5,0,0,1,.22,1.35v3.23ZM124.36,53a3.89,3.89,0,0,0-.13-1.08,1.74,1.74,0,0,0-.36-.69,1.32,1.32,0,0,0-.57-.37,2.08,2.08,0,0,0-.73-.1,2.18,2.18,0,0,0-.73.09,1.27,1.27,0,0,0-.57.36,1.71,1.71,0,0,0-.36.7,4.06,4.06,0,0,0-.12,1.09v.46a4.08,4.08,0,0,0,.12,1.09,1.69,1.69,0,0,0,.36.7,1.28,1.28,0,0,0,.57.36,2.15,2.15,0,0,0,.73.09,1.45,1.45,0,0,0,1.3-.67,3.45,3.45,0,0,0,.49-2Z"/><path class="cls-1" d="M129.41,51.09a1.89,1.89,0,0,0-.66.48,2,2,0,0,0-.41.82,3.33,3.33,0,0,0,0,1.24,2,2,0,0,0,.39.91,2.81,2.81,0,0,0,.92.8,3.55,3.55,0,0,0,1.4.42,4.35,4.35,0,0,0,1.84-.26l0,.41-.51.23a4.85,4.85,0,0,1-.55.2,4.77,4.77,0,0,1-.72.15,9.89,9.89,0,0,1-1,.08,3.08,3.08,0,0,1-1.26-.23,3,3,0,0,1-1-.67,3,3,0,0,1-.65-1,3.57,3.57,0,0,1-.23-1.29,3.53,3.53,0,0,1,.32-1.52,3.06,3.06,0,0,1,.9-1.14,3.32,3.32,0,0,1,1.36-.61,3.79,3.79,0,0,1,1.69.05,2.89,2.89,0,0,1,1.09.58,2.21,2.21,0,0,1,.51.65s0,0,0,0l-.07,0-.27.16a5.61,5.61,0,0,0-.54.43q-.18-.3-.33-.52a1.55,1.55,0,0,0-.34-.36,1.25,1.25,0,0,0-.45-.21,2.51,2.51,0,0,0-.63-.07A2.9,2.9,0,0,0,129.41,51.09Z"/><path class="cls-1" d="M133.81,46.7h1.48v3.7A3.34,3.34,0,0,1,137,50a3.93,3.93,0,0,1,1.46.24,2.47,2.47,0,0,1,1,.68A2.7,2.7,0,0,1,140,52a5.42,5.42,0,0,1,.17,1.42v3h-1.48q0-.08,0-.47c0-.26,0-.57,0-.92V53a4.92,4.92,0,0,0-.1-1.08,1.72,1.72,0,0,0-.31-.69,1.14,1.14,0,0,0-.51-.37,1.89,1.89,0,0,0-.7-.1,2.18,2.18,0,0,0-.71.08,1.26,1.26,0,0,0-.56.35,1.7,1.7,0,0,0-.37.66,3.6,3.6,0,0,0-.15,1v3.57h-1.48Z"/><path class="cls-1" d="M142.5,55.15a1,1,0,0,1,.19.53,1,1,0,0,1-.19.52.64.64,0,0,1-.55.22.69.69,0,0,1-.58-.22.89.89,0,0,1-.18-.52.92.92,0,0,1,.18-.53.68.68,0,0,1,.58-.23A.64.64,0,0,1,142.5,55.15Z"/><path class="cls-1" d="M154.52,47.54a3.29,3.29,0,0,1,0,4.74,3.76,3.76,0,0,1-2.63.86,4.27,4.27,0,0,1-2.28-.54v3.81h-1.47v-6.5a3.19,3.19,0,0,1,1-2.37,4,4,0,0,1,2.74-.87A3.75,3.75,0,0,1,154.52,47.54Zm-4.91,2.79a2.34,2.34,0,0,0,.23,1,1.87,1.87,0,0,0,.52.63,2,2,0,0,0,.69.33,2.68,2.68,0,0,0,.77.09,2.78,2.78,0,0,0,.79-.09,1.9,1.9,0,0,0,.72-.36,1.84,1.84,0,0,0,.52-.7,2.66,2.66,0,0,0,.2-1.09v-.46a2.68,2.68,0,0,0-.2-1.09,1.81,1.81,0,0,0-.52-.7,1.93,1.93,0,0,0-.72-.36,2.82,2.82,0,0,0-.79-.09,2.63,2.63,0,0,0-.79.1,2,2,0,0,0-.71.37,1.84,1.84,0,0,0-.51.69,2.64,2.64,0,0,0-.2,1.08Z"/><path class="cls-1" d="M157.28,53.59a4.24,4.24,0,0,0,.15.72,2.08,2.08,0,0,0,.35.69,1.89,1.89,0,0,0,.62.52,2,2,0,0,0,1,.21,5.24,5.24,0,0,0,1.28-.21l.1.42c-.26.12-.53.24-.8.34a2.06,2.06,0,0,1-.86.13,3.23,3.23,0,0,1-1.25-.23,3,3,0,0,1-1-.66,3.16,3.16,0,0,1-.67-1,3.56,3.56,0,0,1-.27-1.29,3.21,3.21,0,0,1,.23-1.22A3.16,3.16,0,0,1,159,50a3.29,3.29,0,0,1,1.27.27,2.93,2.93,0,0,1,1.61,1.7A3.1,3.1,0,0,1,162,53.2s0,.1,0,.19,0,.15,0,.21Zm1-2.66a1.65,1.65,0,0,0-.49.45,2.26,2.26,0,0,0-.31.64,3.66,3.66,0,0,0-.15.76h3.35a2.63,2.63,0,0,0-.55-1.54,1.49,1.49,0,0,0-1.15-.48h0A1.26,1.26,0,0,0,158.24,50.93Z"/><path class="cls-1" d="M169.64,56.42h-1.48V55.08a4.27,4.27,0,0,1-.43.66,2.14,2.14,0,0,1-.43.41,1.35,1.35,0,0,1-.47.21,2.37,2.37,0,0,1-.53.06,4.08,4.08,0,0,1-1.43-.22,2.44,2.44,0,0,1-1-.64,2.78,2.78,0,0,1-.57-1,4.28,4.28,0,0,1,0-2.7,2.78,2.78,0,0,1,.57-1,2.49,2.49,0,0,1,1-.65,4,4,0,0,1,1.43-.23,4.35,4.35,0,0,1,1.5.23,2.6,2.6,0,0,1,1,.65,2.63,2.63,0,0,1,.59,1,5,5,0,0,1,.22,1.35v3.23ZM168.18,53a3.89,3.89,0,0,0-.13-1.08,1.74,1.74,0,0,0-.36-.69,1.32,1.32,0,0,0-.57-.37,2.08,2.08,0,0,0-.73-.1,2.18,2.18,0,0,0-.73.09,1.27,1.27,0,0,0-.57.36,1.71,1.71,0,0,0-.36.7,4.06,4.06,0,0,0-.12,1.09v.46a4.08,4.08,0,0,0,.12,1.09,1.69,1.69,0,0,0,.36.7,1.28,1.28,0,0,0,.57.36,2.15,2.15,0,0,0,.73.09,1.45,1.45,0,0,0,1.3-.67,3.45,3.45,0,0,0,.49-2Z"/><path class="cls-1" d="M173.22,51.09a1.89,1.89,0,0,0-.66.48,2,2,0,0,0-.41.82,3.33,3.33,0,0,0,0,1.24,2,2,0,0,0,.39.91,2.81,2.81,0,0,0,.92.8,3.55,3.55,0,0,0,1.4.42,4.35,4.35,0,0,0,1.84-.26l0,.41-.51.23a4.85,4.85,0,0,1-.55.2,4.77,4.77,0,0,1-.72.15,9.89,9.89,0,0,1-1,.08,3.08,3.08,0,0,1-1.26-.23,3,3,0,0,1-1-.67,3,3,0,0,1-.65-1,3.57,3.57,0,0,1-.23-1.29,3.53,3.53,0,0,1,.32-1.52,3.06,3.06,0,0,1,.9-1.14,3.32,3.32,0,0,1,1.36-.61,3.79,3.79,0,0,1,1.69.05,2.89,2.89,0,0,1,1.09.58,2.21,2.21,0,0,1,.51.65s0,0,0,0l-.07,0-.27.16a5.61,5.61,0,0,0-.54.43q-.18-.3-.33-.52a1.55,1.55,0,0,0-.34-.36,1.25,1.25,0,0,0-.45-.21,2.51,2.51,0,0,0-.63-.07A2.9,2.9,0,0,0,173.22,51.09Z"/><path class="cls-1" d="M179,53.59a4.24,4.24,0,0,0,.15.72,2.08,2.08,0,0,0,.35.69,1.89,1.89,0,0,0,.62.52,2,2,0,0,0,1,.21,5.24,5.24,0,0,0,1.28-.21l.1.42c-.26.12-.53.24-.8.34a2.06,2.06,0,0,1-.86.13,3.23,3.23,0,0,1-1.25-.23,3,3,0,0,1-1-.66,3.16,3.16,0,0,1-.67-1,3.56,3.56,0,0,1-.27-1.29,3.21,3.21,0,0,1,.23-1.22,3.16,3.16,0,0,1,2.85-2,3.29,3.29,0,0,1,1.27.27,2.93,2.93,0,0,1,1.61,1.7,3.1,3.1,0,0,1,.19,1.21s0,.1,0,.19,0,.15,0,.21Zm1-2.66a1.65,1.65,0,0,0-.49.45,2.26,2.26,0,0,0-.31.64,3.66,3.66,0,0,0-.15.76h3.35a2.63,2.63,0,0,0-.55-1.54,1.49,1.49,0,0,0-1.15-.48h0A1.26,1.26,0,0,0,180,50.93Z"/><path class="cls-1" d="M186.12,55.15a1,1,0,0,1,.19.53,1,1,0,0,1-.19.52.64.64,0,0,1-.55.22.69.69,0,0,1-.58-.22.89.89,0,0,1-.18-.52.92.92,0,0,1,.18-.53.68.68,0,0,1,.58-.23A.64.64,0,0,1,186.12,55.15Z"/><path class="cls-1" d="M191.77,46.67h1.47V51.5h2.95V46.67h1.46v9.75h-1.46V52.1h-2.95v4.33h-1.47Z"/><path class="cls-1" d="M205.24,56.42h-1.48V55.08a4.27,4.27,0,0,1-.43.66,2.14,2.14,0,0,1-.43.41,1.35,1.35,0,0,1-.47.21,2.37,2.37,0,0,1-.53.06,4.08,4.08,0,0,1-1.43-.22,2.44,2.44,0,0,1-1-.64,2.78,2.78,0,0,1-.57-1,4.28,4.28,0,0,1,0-2.7,2.78,2.78,0,0,1,.57-1,2.49,2.49,0,0,1,1-.65,4,4,0,0,1,1.43-.23,4.35,4.35,0,0,1,1.5.23,2.6,2.6,0,0,1,1,.65,2.63,2.63,0,0,1,.59,1,5,5,0,0,1,.22,1.35v3.23ZM203.78,53a3.89,3.89,0,0,0-.13-1.08,1.74,1.74,0,0,0-.36-.69,1.32,1.32,0,0,0-.57-.37,2.08,2.08,0,0,0-.73-.1,2.18,2.18,0,0,0-.73.09,1.27,1.27,0,0,0-.57.36,1.71,1.71,0,0,0-.36.7,4.06,4.06,0,0,0-.12,1.09v.46a4.08,4.08,0,0,0,.12,1.09,1.69,1.69,0,0,0,.36.7,1.28,1.28,0,0,0,.57.36,2.15,2.15,0,0,0,.73.09,1.45,1.45,0,0,0,1.3-.67,3.45,3.45,0,0,0,.49-2Z"/><path class="cls-1" d="M207.81,59h-1.47V53.19a4.89,4.89,0,0,1,.22-1.35,2.73,2.73,0,0,1,.58-1,2.51,2.51,0,0,1,1-.65,4.35,4.35,0,0,1,1.5-.23,4,4,0,0,1,1.43.23,2.52,2.52,0,0,1,1,.65,2.73,2.73,0,0,1,.57,1,4.34,4.34,0,0,1,0,2.7,2.73,2.73,0,0,1-.57,1,2.47,2.47,0,0,1-1,.64,4.07,4.07,0,0,1-1.43.22,5,5,0,0,1-1-.09,3.51,3.51,0,0,1-.81-.27Zm.11-4.55a1.75,1.75,0,0,0,.36.69,1.32,1.32,0,0,0,.57.37,2.08,2.08,0,0,0,.73.1,2.15,2.15,0,0,0,.73-.09,1.29,1.29,0,0,0,.57-.36,1.72,1.72,0,0,0,.36-.7,4,4,0,0,0,.13-1.09V53a4,4,0,0,0-.13-1.09,1.74,1.74,0,0,0-.36-.7,1.28,1.28,0,0,0-.57-.36,2.18,2.18,0,0,0-.73-.09,2.08,2.08,0,0,0-.73.1,1.32,1.32,0,0,0-.57.37,1.75,1.75,0,0,0-.36.69,3.89,3.89,0,0,0-.13,1.08v.46A3.88,3.88,0,0,0,207.92,54.49Z"/><path class="cls-1" d="M215.38,59h-1.47V53.19a4.89,4.89,0,0,1,.22-1.35,2.73,2.73,0,0,1,.58-1,2.51,2.51,0,0,1,1-.65,4.35,4.35,0,0,1,1.5-.23,4,4,0,0,1,1.43.23,2.52,2.52,0,0,1,1,.65,2.73,2.73,0,0,1,.57,1,4.34,4.34,0,0,1,0,2.7,2.73,2.73,0,0,1-.57,1,2.47,2.47,0,0,1-1,.64,4.07,4.07,0,0,1-1.43.22,5,5,0,0,1-1-.09,3.51,3.51,0,0,1-.81-.27Zm.11-4.55a1.75,1.75,0,0,0,.36.69,1.32,1.32,0,0,0,.57.37,2.08,2.08,0,0,0,.73.1,2.15,2.15,0,0,0,.73-.09,1.29,1.29,0,0,0,.57-.36,1.72,1.72,0,0,0,.36-.7,4,4,0,0,0,.13-1.09V53a4,4,0,0,0-.13-1.09,1.74,1.74,0,0,0-.36-.7,1.28,1.28,0,0,0-.57-.36,2.18,2.18,0,0,0-.73-.09,2.08,2.08,0,0,0-.73.1,1.32,1.32,0,0,0-.57.37,1.75,1.75,0,0,0-.36.69,3.89,3.89,0,0,0-.13,1.08v.46A3.88,3.88,0,0,0,215.49,54.49Z"/><path class="cls-1" d="M221.77,47a.9.9,0,0,1,.67-.29.91.91,0,0,1,.67.29,1,1,0,0,1,.28.69.88.88,0,0,1-.08.37,1,1,0,0,1-.22.31,1.1,1.1,0,0,1-.31.21.82.82,0,0,1-.33.08.9.9,0,0,1-.67-.29,1,1,0,0,1,0-1.37Zm1.43,9.42h-1.46V49.89h1.46Z"/><path class="cls-1" d="M229.25,51.91a1.73,1.73,0,0,0-.31-.69,1.13,1.13,0,0,0-.51-.37,1.89,1.89,0,0,0-.7-.1,2.15,2.15,0,0,0-.73.09,1.27,1.27,0,0,0-.57.36,1.71,1.71,0,0,0-.36.7,4.05,4.05,0,0,0-.12,1.09V56.4h-1.47v-3a3.6,3.6,0,0,1,.82-2.5,3,3,0,0,1,2.37-.92,3.92,3.92,0,0,1,1.46.24,2.47,2.47,0,0,1,1,.68,2.71,2.71,0,0,1,.55,1.07,5.42,5.42,0,0,1,.17,1.42v3h-1.47V53A4.92,4.92,0,0,0,229.25,51.91Z"/><path class="cls-1" d="M233.29,53.59a4.24,4.24,0,0,0,.15.72,2.08,2.08,0,0,0,.35.69,1.89,1.89,0,0,0,.62.52,2,2,0,0,0,1,.21,5.24,5.24,0,0,0,1.28-.21l.1.42c-.26.12-.53.24-.8.34a2.06,2.06,0,0,1-.86.13,3.23,3.23,0,0,1-1.25-.23,3,3,0,0,1-1-.66,3.16,3.16,0,0,1-.67-1,3.56,3.56,0,0,1-.27-1.29,3.21,3.21,0,0,1,.23-1.22A3.16,3.16,0,0,1,235,50a3.29,3.29,0,0,1,1.27.27,2.93,2.93,0,0,1,1.61,1.7A3.1,3.1,0,0,1,238,53.2s0,.1,0,.19,0,.15,0,.21Zm1-2.66a1.65,1.65,0,0,0-.49.45,2.26,2.26,0,0,0-.31.64,3.66,3.66,0,0,0-.15.76h3.35a2.63,2.63,0,0,0-.55-1.54,1.49,1.49,0,0,0-1.15-.48h0A1.26,1.26,0,0,0,234.25,50.93Z"/><path class="cls-1" d="M241.51,55.77a1.6,1.6,0,0,0,.46-.21,1,1,0,0,0,.32-.33.87.87,0,0,0,.12-.45.69.69,0,0,0-.12-.41,1.25,1.25,0,0,0-.32-.31,2.4,2.4,0,0,0-.45-.24l-.54-.21-.73-.29a2.9,2.9,0,0,1-.65-.38,1.77,1.77,0,0,1-.47-.56,1.68,1.68,0,0,1-.18-.81,1.41,1.41,0,0,1,.19-.72,1.7,1.7,0,0,1,.52-.55,2.47,2.47,0,0,1,.75-.34,3.27,3.27,0,0,1,.88-.12l.64,0a3.34,3.34,0,0,1,.52.09,2.32,2.32,0,0,1,.46.17l.47.27a2.62,2.62,0,0,1,0,.45q0,.19,0,.38l-.33-.23a2.82,2.82,0,0,0-.4-.22,3,3,0,0,0-.54-.18,5.3,5.3,0,0,0-.73-.11,2,2,0,0,0-.48.06,1.44,1.44,0,0,0-.41.17,1,1,0,0,0-.3.28.64.64,0,0,0-.12.38.67.67,0,0,0,.12.4,1.33,1.33,0,0,0,.33.31,2.58,2.58,0,0,0,.47.25l.54.23.71.3a3,3,0,0,1,.65.39,1.83,1.83,0,0,1,.46.55,1.56,1.56,0,0,1,.18.77,1.68,1.68,0,0,1-.22.88,1.84,1.84,0,0,1-.58.6,2.57,2.57,0,0,1-.8.34,3.77,3.77,0,0,1-.88.11q-.49,0-1-.08a6.21,6.21,0,0,1-1-.22l-.11-.88a2.64,2.64,0,0,0,.93.44,4,4,0,0,0,1.06.08A2.08,2.08,0,0,0,241.51,55.77Z"/><path class="cls-1" d="M246.9,55.77a1.6,1.6,0,0,0,.46-.21,1,1,0,0,0,.32-.33.87.87,0,0,0,.12-.45.69.69,0,0,0-.12-.41,1.25,1.25,0,0,0-.32-.31,2.4,2.4,0,0,0-.45-.24l-.54-.21-.73-.29a2.9,2.9,0,0,1-.65-.38,1.77,1.77,0,0,1-.47-.56,1.68,1.68,0,0,1-.18-.81,1.41,1.41,0,0,1,.19-.72,1.7,1.7,0,0,1,.52-.55,2.47,2.47,0,0,1,.75-.34,3.27,3.27,0,0,1,.88-.12l.64,0a3.34,3.34,0,0,1,.52.09,2.32,2.32,0,0,1,.46.17l.47.27a2.62,2.62,0,0,1,0,.45q0,.19,0,.38l-.33-.23a2.82,2.82,0,0,0-.4-.22,3,3,0,0,0-.54-.18,5.3,5.3,0,0,0-.73-.11,2,2,0,0,0-.48.06,1.44,1.44,0,0,0-.41.17,1,1,0,0,0-.3.28.64.64,0,0,0-.12.38.67.67,0,0,0,.12.4,1.33,1.33,0,0,0,.33.31,2.58,2.58,0,0,0,.47.25l.54.23.71.3a3,3,0,0,1,.65.39,1.83,1.83,0,0,1,.46.55,1.56,1.56,0,0,1,.18.77,1.68,1.68,0,0,1-.22.88,1.84,1.84,0,0,1-.58.6,2.57,2.57,0,0,1-.8.34,3.77,3.77,0,0,1-.88.11q-.49,0-1-.08a6.21,6.21,0,0,1-1-.22l-.11-.88a2.64,2.64,0,0,0,.93.44,4,4,0,0,0,1.06.08A2.08,2.08,0,0,0,246.9,55.77Z"/><path class="cls-1" d="M58,9.35a4.68,4.68,0,1,1,4.68-4.68A4.68,4.68,0,0,1,58,9.35ZM58,.58a4.09,4.09,0,1,0,4.09,4.09A4.1,4.1,0,0,0,58,.58Z"/><path class="cls-1" d="M56.75,2.29a5.82,5.82,0,0,1,1.07-.09,1.77,1.77,0,0,1,1.25.35,1.08,1.08,0,0,1,.34.82,1.14,1.14,0,0,1-.82,1.11v0a1.08,1.08,0,0,1,.64.87,6.89,6.89,0,0,0,.33,1.19H59a5.61,5.61,0,0,1-.29-1c-.13-.6-.36-.82-.87-.84h-.53V6.56h-.56Zm.56,2h.57c.6,0,1-.33,1-.82s-.41-.8-1-.81a2.3,2.3,0,0,0-.55.05Z"/></g></g></svg>