<svg xmlns="http://www.w3.org/2000/svg" viewBox="0 0 302.4 71.7"><defs><style>.cls-1{fill:#6c492e;}.cls-2{fill:#606060;}</style></defs><title>logo</title><g id="Layer_2" data-name="Layer 2"><g id="Layer_1-2" data-name="Layer 1"><path class="cls-1" d="M27,59.58,23.36,71.7C9.05,67.36-5.38,45.9,2,25.81,8.52,8,28-3,46.39,1.9S77,26.25,72.7,44.82L34.41,34,28,56.51l14,4.41,3.12-10.11,22.23,6.65-.41,2L55,56.8l-3.22,10ZM10.33,47.43a8.34,8.34,0,0,0,8.24,8.52c4,0,6.77-2.84,6.93-7a8.23,8.23,0,0,0-7.93-8.79A7.09,7.09,0,0,0,10.33,47.43ZM46.51,23.81c0-4.85-3.26-8.19-7.92-8.13a6.93,6.93,0,0,0-7,7,8.39,8.39,0,0,0,8,8.41C44,31.22,46.52,28.5,46.51,23.81Zm1.88,3.75c-.05,4.28,3.71,8.46,7.76,8.61,3.7.14,7.13-3.49,7.07-7.49a8.22,8.22,0,0,0-7.61-8.17C51.45,20.35,48.44,23.28,48.39,27.56Zm-17.79,5c0-4.81-3.18-8.47-7.56-8.6a7.23,7.23,0,0,0-7.14,7.44c0,4.4,3.88,8.36,8.09,8.34C27.93,39.75,30.57,36.88,30.6,32.59Z"/><path class="cls-1" d="M109.22,50.42h-8.45q-5.61,0-8.58-3a10.93,10.93,0,0,1-3-8.08V18.54h4.62V40.88a8.78,8.78,0,0,0,.62,3.53,6.47,6.47,0,0,0,1.59,2.27,5.5,5.5,0,0,0,2.22,1.21,9.37,9.37,0,0,0,2.49.34h8.45Z"/><path class="cls-1" d="M132.56,50.34h-4.64v-.12L128,46a13.92,13.92,0,0,1-1.34,2.16,6.83,6.83,0,0,1-1.34,1.34,4.1,4.1,0,0,1-1.47.68,7.16,7.16,0,0,1-1.66.19,12.33,12.33,0,0,1-4.49-.72,7.63,7.63,0,0,1-3-2.1,9.16,9.16,0,0,1-1.8-3.32,16.56,16.56,0,0,1-.68-4.41,16.56,16.56,0,0,1,.68-4.41,9.16,9.16,0,0,1,1.8-3.32,7.82,7.82,0,0,1,3-2.12,12,12,0,0,1,4.49-.75,13.19,13.19,0,0,1,4.7.75A8.12,8.12,0,0,1,130,32a8.68,8.68,0,0,1,1.84,3.32,16.87,16.87,0,0,1,.67,4.41V50.34ZM128,39a13.2,13.2,0,0,0-.4-3.53,5.78,5.78,0,0,0-1.14-2.27A4.16,4.16,0,0,0,124.64,32a6.27,6.27,0,0,0-2.29-.32,6.59,6.59,0,0,0-2.28.3,4,4,0,0,0-1.79,1.19,5.68,5.68,0,0,0-1.13,2.29,13.72,13.72,0,0,0-.39,3.55V40.5a13.84,13.84,0,0,0,.39,3.56,5.59,5.59,0,0,0,1.13,2.29,4,4,0,0,0,1.79,1.18,6.58,6.58,0,0,0,2.28.3,4.51,4.51,0,0,0,4.07-2.2A11.62,11.62,0,0,0,128,39.1Z"/><path class="cls-1" d="M151,35.61a5.76,5.76,0,0,0-1-2.27,3.57,3.57,0,0,0-1.6-1.21,5.69,5.69,0,0,0-2.21-.32,6.59,6.59,0,0,0-2.28.3,4,4,0,0,0-1.79,1.19A5.68,5.68,0,0,0,141,35.59a13.72,13.72,0,0,0-.39,3.55V50.29H136V40.46q0-5.17,2.58-8.17t7.43-3a11.86,11.86,0,0,1,4.57.79,7.76,7.76,0,0,1,3.07,2.22,9,9,0,0,1,1.72,3.5,18.42,18.42,0,0,1,.54,4.65v9.83H151.3V39.14A16.73,16.73,0,0,0,151,35.61Z"/><path class="cls-1" d="M179.29,50.42h-8.45q-5.62,0-8.58-3a10.94,10.94,0,0,1-3-8.08V18.54h4.62V40.88a8.78,8.78,0,0,0,.62,3.53,6.46,6.46,0,0,0,1.59,2.27,5.5,5.5,0,0,0,2.22,1.21,9.37,9.37,0,0,0,2.49.34h8.45Z"/><path class="cls-1" d="M202.63,50.34H198v-.12L198,46a13.92,13.92,0,0,1-1.34,2.16,6.82,6.82,0,0,1-1.34,1.34,4.09,4.09,0,0,1-1.47.68,7.17,7.17,0,0,1-1.66.19,12.33,12.33,0,0,1-4.49-.72,7.63,7.63,0,0,1-3-2.1,9.17,9.17,0,0,1-1.8-3.32,16.56,16.56,0,0,1-.68-4.41,16.56,16.56,0,0,1,.68-4.41,9.17,9.17,0,0,1,1.8-3.32,7.82,7.82,0,0,1,3-2.12,12,12,0,0,1,4.49-.75,13.19,13.19,0,0,1,4.7.75A8.13,8.13,0,0,1,200.12,32,8.69,8.69,0,0,1,202,35.37a16.92,16.92,0,0,1,.67,4.41V50.34ZM198,39a13.2,13.2,0,0,0-.4-3.53,5.79,5.79,0,0,0-1.14-2.27A4.16,4.16,0,0,0,194.71,32a6.28,6.28,0,0,0-2.29-.32,6.59,6.59,0,0,0-2.28.3,4,4,0,0,0-1.79,1.19,5.68,5.68,0,0,0-1.14,2.29,13.74,13.74,0,0,0-.39,3.55V40.5a13.86,13.86,0,0,0,.39,3.56,5.58,5.58,0,0,0,1.14,2.29,4,4,0,0,0,1.79,1.18,6.58,6.58,0,0,0,2.28.3,4.51,4.51,0,0,0,4.07-2.2A11.62,11.62,0,0,0,198,39.1Z"/><path class="cls-1" d="M221.06,35.61a5.77,5.77,0,0,0-1-2.27,3.57,3.57,0,0,0-1.6-1.21,5.69,5.69,0,0,0-2.21-.32,6.59,6.59,0,0,0-2.28.3,4,4,0,0,0-1.79,1.19,5.69,5.69,0,0,0-1.13,2.29,13.7,13.7,0,0,0-.39,3.55V50.29h-4.62V40.46q0-5.17,2.58-8.17t7.43-3a11.86,11.86,0,0,1,4.57.79,7.75,7.75,0,0,1,3.07,2.22,9,9,0,0,1,1.72,3.5,18.39,18.39,0,0,1,.54,4.65v9.83h-4.62V39.14A16.77,16.77,0,0,0,221.06,35.61Z"/><path class="cls-1" d="M263.41,21.34a11.06,11.06,0,0,1,0,15.5q-3,2.82-8.25,2.81A13,13,0,0,1,248,37.88V50.34h-4.62V29.1a10.62,10.62,0,0,1,3.18-7.76q3-2.84,8.6-2.84Q260.43,18.5,263.41,21.34ZM248,30.44a7.89,7.89,0,0,0,.73,3.26,5.91,5.91,0,0,0,3.82,3.17,8.15,8.15,0,0,0,2.41.28,8.43,8.43,0,0,0,2.49-.3,5.85,5.85,0,0,0,2.27-1.19,6,6,0,0,0,1.62-2.29,9,9,0,0,0,.62-3.55V28.33a9.1,9.1,0,0,0-.62-3.56,5.71,5.71,0,0,0-3.89-3.47A8.43,8.43,0,0,0,255,21a8,8,0,0,0-2.49.32,6.11,6.11,0,0,0-2.24,1.2,6,6,0,0,0-1.61,2.27,9,9,0,0,0-.62,3.54Z"/><path class="cls-1" d="M272.06,41.1a14.34,14.34,0,0,0,.46,2.37,6.87,6.87,0,0,0,1.09,2.25,6,6,0,0,0,1.95,1.69,6.09,6.09,0,0,0,3,.67,15.88,15.88,0,0,0,4-.7l.31,1.39q-1.23.6-2.51,1.11a6.22,6.22,0,0,1-2.69.42,9.79,9.79,0,0,1-3.91-.77,9.37,9.37,0,0,1-3.1-2.14,10.37,10.37,0,0,1-2.1-3.28,12,12,0,0,1-.86-4.2,10.88,10.88,0,0,1,.72-4,10.44,10.44,0,0,1,2-3.29,9.94,9.94,0,0,1,3.06-2.28,9.66,9.66,0,0,1,3.85-.93,10,10,0,0,1,4,.87,9.36,9.36,0,0,1,3.09,2.25,9.77,9.77,0,0,1,2,3.31,10.5,10.5,0,0,1,.6,4q0,.21,0,.61t0,.67Zm3-8.68a5.25,5.25,0,0,0-1.53,1.48,7.54,7.54,0,0,0-1,2.1,12.39,12.39,0,0,0-.48,2.47H282.6a8.82,8.82,0,0,0-1.73-5.05,4.61,4.61,0,0,0-3.61-1.57h-.08A3.83,3.83,0,0,0,275.09,32.42Z"/><path class="cls-1" d="M302.4,31.52h-4.66V50.38H293.3V31.52h-4.69V29.06h4.69V18.54h4.44V29.06h4.66Z"/><path class="cls-2" d="M96.52,57.69a4,4,0,0,1,0,5.76,4.57,4.57,0,0,1-3.19,1,5.19,5.19,0,0,1-2.77-.66v4.63H88.77V60.57A3.87,3.87,0,0,1,90,57.69a4.79,4.79,0,0,1,3.32-1.05A4.55,4.55,0,0,1,96.52,57.69Zm-6,3.38a2.83,2.83,0,0,0,.28,1.21,2.27,2.27,0,0,0,.64.77,2.36,2.36,0,0,0,.84.41,3.26,3.26,0,0,0,.93.1,3.38,3.38,0,0,0,1-.11,2.31,2.31,0,0,0,.88-.44,2.25,2.25,0,0,0,.63-.85A3.24,3.24,0,0,0,96,60.84v-.55A3.26,3.26,0,0,0,95.72,59a2.21,2.21,0,0,0-.63-.85,2.33,2.33,0,0,0-.88-.44,3.38,3.38,0,0,0-1-.11,3.17,3.17,0,0,0-1,.12,2.39,2.39,0,0,0-.87.45,2.23,2.23,0,0,0-.62.84,3.21,3.21,0,0,0-.24,1.31Z"/><path class="cls-2" d="M99.86,65a5.13,5.13,0,0,0,.18.88,2.51,2.51,0,0,0,.42.83,2.29,2.29,0,0,0,.75.63,2.43,2.43,0,0,0,1.16.25,6.37,6.37,0,0,0,1.55-.26l.12.52q-.48.22-1,.41a2.51,2.51,0,0,1-1,.16,3.92,3.92,0,0,1-1.51-.28,3.63,3.63,0,0,1-1.2-.8,3.84,3.84,0,0,1-.81-1.22,4.32,4.32,0,0,1-.33-1.56,3.89,3.89,0,0,1,1.06-2.7,3.83,3.83,0,0,1,2.67-1.19,4,4,0,0,1,1.55.32,3.56,3.56,0,0,1,2,2.06,3.76,3.76,0,0,1,.23,1.47c0,.05,0,.13,0,.23s0,.18,0,.25ZM101,61.8a2,2,0,0,0-.59.55,2.76,2.76,0,0,0-.38.78,4.42,4.42,0,0,0-.19.92h4.06a3.19,3.19,0,0,0-.67-1.87,1.82,1.82,0,0,0-1.4-.58h0A1.53,1.53,0,0,0,101,61.8Z"/><path class="cls-2" d="M111.59,61.47h-1.8v7h-1.72v-7h-1.81v-.91h1.81v-3.9h1.72v3.9h1.8Z"/><path class="cls-2" d="M115.37,67.67a1.93,1.93,0,0,0,.56-.25,1.26,1.26,0,0,0,.39-.4,1.05,1.05,0,0,0,.14-.55.84.84,0,0,0-.15-.5,1.53,1.53,0,0,0-.39-.38,2.87,2.87,0,0,0-.55-.29l-.65-.25q-.45-.16-.88-.35a3.56,3.56,0,0,1-.78-.47,2.14,2.14,0,0,1-.57-.68,2.05,2.05,0,0,1-.22-1,1.71,1.71,0,0,1,.23-.88,2.07,2.07,0,0,1,.63-.67,3,3,0,0,1,.91-.42,4,4,0,0,1,1.07-.14q.43,0,.77,0a3.92,3.92,0,0,1,.64.11,2.76,2.76,0,0,1,.56.21q.26.13.57.33a3.16,3.16,0,0,1,0,.54q0,.23,0,.46l-.4-.28a3.46,3.46,0,0,0-.49-.27,3.62,3.62,0,0,0-.65-.22,6.35,6.35,0,0,0-.88-.13,2.42,2.42,0,0,0-.58.07,1.74,1.74,0,0,0-.5.2,1.19,1.19,0,0,0-.36.33.78.78,0,0,0-.14.46.81.81,0,0,0,.15.49,1.62,1.62,0,0,0,.4.38,3.15,3.15,0,0,0,.57.31l.66.28.87.37a3.66,3.66,0,0,1,.78.47,2.21,2.21,0,0,1,.56.66,1.9,1.9,0,0,1,.22.93,2,2,0,0,1-.27,1.06,2.23,2.23,0,0,1-.7.73,3.1,3.1,0,0,1-1,.42,4.55,4.55,0,0,1-1.07.13q-.59,0-1.2-.09a7.53,7.53,0,0,1-1.25-.27l-.14-1.07a3.21,3.21,0,0,0,1.12.53,4.87,4.87,0,0,0,1.29.1A2.54,2.54,0,0,0,115.37,67.67Z"/><path class="cls-2" d="M120.55,66.92a1.23,1.23,0,0,1,.23.64,1.18,1.18,0,0,1-.23.63.78.78,0,0,1-.67.27.84.84,0,0,1-.71-.27,1.07,1.07,0,0,1-.22-.63,1.11,1.11,0,0,1,.22-.64.83.83,0,0,1,.71-.28A.77.77,0,0,1,120.55,66.92Z"/><path class="cls-2" d="M132.65,57.83V68.45h-1.78V57.83h-3.93V56.65h9.63v1.18Z"/><path class="cls-2" d="M137.68,65a5.13,5.13,0,0,0,.18.88,2.51,2.51,0,0,0,.42.83,2.29,2.29,0,0,0,.75.63,2.43,2.43,0,0,0,1.16.25,6.37,6.37,0,0,0,1.55-.26l.12.52q-.48.22-1,.41a2.51,2.51,0,0,1-1,.16,3.92,3.92,0,0,1-1.51-.28,3.63,3.63,0,0,1-1.2-.8,3.84,3.84,0,0,1-.81-1.22,4.32,4.32,0,0,1-.33-1.56,3.89,3.89,0,0,1,1.06-2.7,3.83,3.83,0,0,1,2.67-1.19,4,4,0,0,1,1.55.32,3.56,3.56,0,0,1,2,2.06,3.76,3.76,0,0,1,.23,1.47c0,.05,0,.13,0,.23s0,.18,0,.25Zm1.17-3.22a2,2,0,0,0-.59.55,2.76,2.76,0,0,0-.38.78,4.42,4.42,0,0,0-.19.92h4.06a3.19,3.19,0,0,0-.67-1.87,1.82,1.82,0,0,0-1.4-.58h0A1.53,1.53,0,0,0,138.85,61.8Z"/><path class="cls-2" d="M152.68,68.45h-1.79v0l0-1.58a5.15,5.15,0,0,1-.52.8,2.6,2.6,0,0,1-.52.5,1.61,1.61,0,0,1-.57.25,2.86,2.86,0,0,1-.64.07,4.93,4.93,0,0,1-1.74-.27,3,3,0,0,1-1.18-.78,3.36,3.36,0,0,1-.7-1.23,5.19,5.19,0,0,1,0-3.27,3.36,3.36,0,0,1,.7-1.23,3,3,0,0,1,1.18-.79,4.81,4.81,0,0,1,1.74-.28,5.29,5.29,0,0,1,1.82.28,3.16,3.16,0,0,1,1.23.79,3.19,3.19,0,0,1,.71,1.23,6,6,0,0,1,.26,1.64v3.92Zm-1.78-4.2a4.72,4.72,0,0,0-.15-1.31,2.12,2.12,0,0,0-.44-.84,1.61,1.61,0,0,0-.69-.45,2.51,2.51,0,0,0-.88-.12,2.64,2.64,0,0,0-.88.11,1.55,1.55,0,0,0-.69.44,2.08,2.08,0,0,0-.44.85,4.91,4.91,0,0,0-.15,1.32v.55a5,5,0,0,0,.15,1.32,2,2,0,0,0,.44.85,1.56,1.56,0,0,0,.69.44,2.63,2.63,0,0,0,.88.11,1.76,1.76,0,0,0,1.57-.82,4.18,4.18,0,0,0,.6-2.42Z"/><path class="cls-2" d="M157,62a2.31,2.31,0,0,0-.8.59,2.41,2.41,0,0,0-.5,1,4,4,0,0,0-.06,1.5,2.39,2.39,0,0,0,.47,1.11,3.41,3.41,0,0,0,1.12,1,4.3,4.3,0,0,0,1.69.5,5.26,5.26,0,0,0,2.23-.32l0,.5-.62.28a5.74,5.74,0,0,1-.67.24,5.8,5.8,0,0,1-.87.18,11.87,11.87,0,0,1-1.23.09,3.74,3.74,0,0,1-1.53-.28,3.65,3.65,0,0,1-1.21-.81,3.58,3.58,0,0,1-.79-1.25,4.33,4.33,0,0,1-.28-1.57,4.28,4.28,0,0,1,.39-1.84,3.7,3.7,0,0,1,1.09-1.38,4,4,0,0,1,1.64-.75,4.58,4.58,0,0,1,2.06.07,3.5,3.5,0,0,1,1.32.71,2.67,2.67,0,0,1,.62.78s0,.06,0,.05l-.09,0a2.48,2.48,0,0,0-.33.19,6.9,6.9,0,0,0-.66.53q-.22-.36-.4-.63a1.88,1.88,0,0,0-.42-.44,1.53,1.53,0,0,0-.54-.25,3.09,3.09,0,0,0-.76-.08A3.53,3.53,0,0,0,157,62Z"/><path class="cls-2" d="M162.37,56.67h1.8v4.49a4,4,0,0,1,2.09-.51,4.75,4.75,0,0,1,1.77.29,3,3,0,0,1,1.19.83,3.29,3.29,0,0,1,.67,1.3,6.58,6.58,0,0,1,.21,1.73v3.68h-1.8q0-.09,0-.57t0-1.11V64.3a6,6,0,0,0-.12-1.31,2.1,2.1,0,0,0-.37-.84,1.38,1.38,0,0,0-.62-.45,2.29,2.29,0,0,0-.85-.12,2.66,2.66,0,0,0-.86.1,1.52,1.52,0,0,0-.68.42,2.08,2.08,0,0,0-.45.8,4.38,4.38,0,0,0-.18,1.24v4.33h-1.8Z"/><path class="cls-2" d="M172.91,66.92a1.23,1.23,0,0,1,.23.64,1.18,1.18,0,0,1-.23.63.78.78,0,0,1-.67.27.84.84,0,0,1-.71-.27,1.07,1.07,0,0,1-.22-.63,1.11,1.11,0,0,1,.22-.64.83.83,0,0,1,.71-.28A.77.77,0,0,1,172.91,66.92Z"/><path class="cls-2" d="M187.5,57.69a4,4,0,0,1,0,5.76,4.57,4.57,0,0,1-3.19,1,5.19,5.19,0,0,1-2.77-.66v4.63h-1.78V60.57A3.87,3.87,0,0,1,181,57.69a4.79,4.79,0,0,1,3.32-1.05A4.55,4.55,0,0,1,187.5,57.69Zm-6,3.38a2.83,2.83,0,0,0,.28,1.21,2.27,2.27,0,0,0,.64.77,2.36,2.36,0,0,0,.84.41,3.26,3.26,0,0,0,.93.1,3.38,3.38,0,0,0,1-.11,2.31,2.31,0,0,0,.88-.44,2.25,2.25,0,0,0,.63-.85,3.24,3.24,0,0,0,.24-1.32v-.55A3.26,3.26,0,0,0,186.7,59a2.21,2.21,0,0,0-.63-.85,2.33,2.33,0,0,0-.88-.44,3.38,3.38,0,0,0-1-.11,3.17,3.17,0,0,0-1,.12,2.39,2.39,0,0,0-.87.45,2.23,2.23,0,0,0-.62.84,3.21,3.21,0,0,0-.24,1.31Z"/><path class="cls-2" d="M190.84,65a5.13,5.13,0,0,0,.18.88,2.51,2.51,0,0,0,.42.83,2.29,2.29,0,0,0,.75.63,2.43,2.43,0,0,0,1.16.25,6.37,6.37,0,0,0,1.55-.26l.12.52q-.48.22-1,.41a2.51,2.51,0,0,1-1,.16,3.92,3.92,0,0,1-1.51-.28,3.63,3.63,0,0,1-1.2-.8,3.84,3.84,0,0,1-.81-1.22,4.32,4.32,0,0,1-.33-1.56,3.89,3.89,0,0,1,1.06-2.7,3.83,3.83,0,0,1,2.67-1.19,4,4,0,0,1,1.55.32,3.56,3.56,0,0,1,2,2.06,3.76,3.76,0,0,1,.23,1.47c0,.05,0,.13,0,.23s0,.18,0,.25ZM192,61.8a2,2,0,0,0-.59.55,2.76,2.76,0,0,0-.38.78,4.42,4.42,0,0,0-.19.92h4.06a3.19,3.19,0,0,0-.67-1.87,1.82,1.82,0,0,0-1.4-.58h0A1.53,1.53,0,0,0,192,61.8Z"/><path class="cls-2" d="M205.84,68.45H204v0l0-1.58a5.15,5.15,0,0,1-.52.8,2.6,2.6,0,0,1-.52.5,1.61,1.61,0,0,1-.57.25,2.86,2.86,0,0,1-.64.07,4.93,4.93,0,0,1-1.74-.27,3,3,0,0,1-1.18-.78,3.36,3.36,0,0,1-.7-1.23,5.19,5.19,0,0,1,0-3.27,3.36,3.36,0,0,1,.7-1.23,3,3,0,0,1,1.18-.79,4.81,4.81,0,0,1,1.74-.28,5.29,5.29,0,0,1,1.82.28,3.16,3.16,0,0,1,1.23.79,3.19,3.19,0,0,1,.71,1.23,6,6,0,0,1,.26,1.64v3.92Zm-1.78-4.2a4.72,4.72,0,0,0-.15-1.31,2.12,2.12,0,0,0-.44-.84,1.61,1.61,0,0,0-.69-.45,2.51,2.51,0,0,0-.88-.12,2.64,2.64,0,0,0-.88.11,1.55,1.55,0,0,0-.69.44,2.08,2.08,0,0,0-.44.85,4.91,4.91,0,0,0-.15,1.32v.55a5,5,0,0,0,.15,1.32,2,2,0,0,0,.44.85,1.56,1.56,0,0,0,.69.44,2.63,2.63,0,0,0,.88.11,1.76,1.76,0,0,0,1.57-.82,4.18,4.18,0,0,0,.6-2.42Z"/><path class="cls-2" d="M210.18,62a2.31,2.31,0,0,0-.8.59,2.41,2.41,0,0,0-.5,1,4,4,0,0,0-.06,1.5,2.39,2.39,0,0,0,.47,1.11,3.41,3.41,0,0,0,1.12,1,4.3,4.3,0,0,0,1.69.5,5.26,5.26,0,0,0,2.23-.32l0,.5-.62.28a5.74,5.74,0,0,1-.67.24,5.8,5.8,0,0,1-.87.18,11.87,11.87,0,0,1-1.23.09,3.74,3.74,0,0,1-1.53-.28,3.65,3.65,0,0,1-1.21-.81,3.58,3.58,0,0,1-.79-1.25,4.33,4.33,0,0,1-.28-1.57,4.28,4.28,0,0,1,.39-1.84,3.7,3.7,0,0,1,1.09-1.38,4,4,0,0,1,1.64-.75,4.58,4.58,0,0,1,2.06.07,3.5,3.5,0,0,1,1.32.71,2.67,2.67,0,0,1,.62.78s0,.06,0,.05l-.09,0a2.48,2.48,0,0,0-.33.19,6.9,6.9,0,0,0-.66.53q-.22-.36-.4-.63a1.88,1.88,0,0,0-.42-.44,1.53,1.53,0,0,0-.54-.25,3.09,3.09,0,0,0-.76-.08A3.53,3.53,0,0,0,210.18,62Z"/><path class="cls-2" d="M217.21,65a5.13,5.13,0,0,0,.18.88,2.51,2.51,0,0,0,.42.83,2.29,2.29,0,0,0,.75.63,2.43,2.43,0,0,0,1.16.25,6.37,6.37,0,0,0,1.55-.26l.12.52q-.48.22-1,.41a2.51,2.51,0,0,1-1,.16,3.92,3.92,0,0,1-1.51-.28,3.63,3.63,0,0,1-1.2-.8,3.84,3.84,0,0,1-.81-1.22,4.32,4.32,0,0,1-.33-1.56,3.89,3.89,0,0,1,1.06-2.7,3.83,3.83,0,0,1,2.67-1.19,4,4,0,0,1,1.55.32,3.56,3.56,0,0,1,2,2.06,3.76,3.76,0,0,1,.23,1.47c0,.05,0,.13,0,.23s0,.18,0,.25Zm1.17-3.22a2,2,0,0,0-.59.55,2.76,2.76,0,0,0-.38.78,4.42,4.42,0,0,0-.19.92h4.06a3.19,3.19,0,0,0-.67-1.87,1.82,1.82,0,0,0-1.4-.58h0A1.53,1.53,0,0,0,218.38,61.8Z"/><path class="cls-2" d="M225.84,66.92a1.23,1.23,0,0,1,.23.64,1.18,1.18,0,0,1-.23.63.78.78,0,0,1-.67.27.84.84,0,0,1-.71-.27,1.07,1.07,0,0,1-.22-.63,1.11,1.11,0,0,1,.22-.64.83.83,0,0,1,.71-.28A.77.77,0,0,1,225.84,66.92Z"/><path class="cls-2" d="M232.69,56.63h1.78v5.86h3.58V56.63h1.78V68.47h-1.78V63.21h-3.58v5.26h-1.78Z"/><path class="cls-2" d="M249,68.45h-1.79v0l0-1.58a5.15,5.15,0,0,1-.52.8,2.6,2.6,0,0,1-.52.5,1.61,1.61,0,0,1-.57.25,2.86,2.86,0,0,1-.64.07,4.93,4.93,0,0,1-1.74-.27,3,3,0,0,1-1.18-.78,3.36,3.36,0,0,1-.7-1.23,5.19,5.19,0,0,1,0-3.27,3.36,3.36,0,0,1,.7-1.23,3,3,0,0,1,1.18-.79A4.81,4.81,0,0,1,245,60.6a5.29,5.29,0,0,1,1.82.28,3.16,3.16,0,0,1,1.23.79,3.19,3.19,0,0,1,.71,1.23,6,6,0,0,1,.26,1.64v3.92Zm-1.78-4.2a4.72,4.72,0,0,0-.15-1.31,2.12,2.12,0,0,0-.44-.84,1.61,1.61,0,0,0-.69-.45,2.51,2.51,0,0,0-.88-.12,2.64,2.64,0,0,0-.88.11,1.55,1.55,0,0,0-.69.44,2.08,2.08,0,0,0-.44.85,4.91,4.91,0,0,0-.15,1.32v.55a5,5,0,0,0,.15,1.32,2,2,0,0,0,.44.85,1.56,1.56,0,0,0,.69.44,2.63,2.63,0,0,0,.88.11,1.76,1.76,0,0,0,1.57-.82,4.18,4.18,0,0,0,.6-2.42Z"/><path class="cls-2" d="M252.15,71.63h-1.78v-7.1a5.93,5.93,0,0,1,.26-1.64,3.3,3.3,0,0,1,.7-1.23,3.06,3.06,0,0,1,1.22-.79,5.29,5.29,0,0,1,1.82-.28,4.81,4.81,0,0,1,1.74.28,3.07,3.07,0,0,1,1.18.79,3.3,3.3,0,0,1,.7,1.23,5.27,5.27,0,0,1,0,3.27,3.3,3.3,0,0,1-.7,1.23,3,3,0,0,1-1.18.78,4.93,4.93,0,0,1-1.74.27,6.06,6.06,0,0,1-1.23-.11,4.24,4.24,0,0,1-1-.33Zm.13-5.52a2.11,2.11,0,0,0,.44.84,1.61,1.61,0,0,0,.69.45,2.52,2.52,0,0,0,.88.12,2.63,2.63,0,0,0,.88-.11,1.56,1.56,0,0,0,.69-.44,2.08,2.08,0,0,0,.44-.85,4.84,4.84,0,0,0,.15-1.32v-.55a4.8,4.8,0,0,0-.15-1.32,2.12,2.12,0,0,0-.44-.85,1.55,1.55,0,0,0-.69-.44,2.64,2.64,0,0,0-.88-.11,2.51,2.51,0,0,0-.88.12,1.61,1.61,0,0,0-.69.45,2.11,2.11,0,0,0-.44.84,4.7,4.7,0,0,0-.16,1.31v.55A4.71,4.71,0,0,0,252.28,66.11Z"/><path class="cls-2" d="M261.35,71.63h-1.78v-7.1a5.93,5.93,0,0,1,.26-1.64,3.3,3.3,0,0,1,.7-1.23,3.06,3.06,0,0,1,1.22-.79,5.29,5.29,0,0,1,1.82-.28,4.81,4.81,0,0,1,1.74.28,3.07,3.07,0,0,1,1.18.79,3.3,3.3,0,0,1,.7,1.23,5.27,5.27,0,0,1,0,3.27,3.3,3.3,0,0,1-.7,1.23,3,3,0,0,1-1.18.78,4.93,4.93,0,0,1-1.74.27,6.06,6.06,0,0,1-1.23-.11,4.24,4.24,0,0,1-1-.33Zm.13-5.52a2.11,2.11,0,0,0,.44.84,1.61,1.61,0,0,0,.69.45,2.52,2.52,0,0,0,.88.12,2.63,2.63,0,0,0,.88-.11,1.56,1.56,0,0,0,.69-.44,2.08,2.08,0,0,0,.44-.85,4.84,4.84,0,0,0,.15-1.32v-.55a4.8,4.8,0,0,0-.15-1.32,2.12,2.12,0,0,0-.44-.85,1.55,1.55,0,0,0-.69-.44,2.64,2.64,0,0,0-.88-.11,2.51,2.51,0,0,0-.88.12,1.61,1.61,0,0,0-.69.45,2.11,2.11,0,0,0-.44.84,4.7,4.7,0,0,0-.16,1.31v.55A4.71,4.71,0,0,0,261.48,66.11Z"/><path class="cls-2" d="M269.09,57a1.09,1.09,0,0,1,.82-.35,1.1,1.1,0,0,1,.82.35,1.15,1.15,0,0,1,.34.84,1.06,1.06,0,0,1-.1.45,1.22,1.22,0,0,1-.27.38,1.34,1.34,0,0,1-.38.26,1,1,0,0,1-.4.09,1.09,1.09,0,0,1-.82-.35,1.21,1.21,0,0,1,0-1.67Zm1.74,11.43h-1.78v-7.9h1.78Z"/><path class="cls-2" d="M278.17,63a2.1,2.1,0,0,0-.37-.84,1.38,1.38,0,0,0-.62-.45,2.29,2.29,0,0,0-.85-.12,2.64,2.64,0,0,0-.88.11,1.55,1.55,0,0,0-.69.44,2.08,2.08,0,0,0-.44.85,4.91,4.91,0,0,0-.15,1.32v4.14h-1.78V64.79a4.37,4.37,0,0,1,1-3,3.66,3.66,0,0,1,2.87-1.11,4.75,4.75,0,0,1,1.77.29,3,3,0,0,1,1.19.83,3.29,3.29,0,0,1,.67,1.3,6.58,6.58,0,0,1,.21,1.73v3.65h-1.78V64.3A6,6,0,0,0,278.17,63Z"/><path class="cls-2" d="M283.07,65a5.13,5.13,0,0,0,.18.88,2.51,2.51,0,0,0,.42.83,2.29,2.29,0,0,0,.75.63,2.43,2.43,0,0,0,1.16.25,6.37,6.37,0,0,0,1.55-.26l.12.52q-.48.22-1,.41a2.51,2.51,0,0,1-1,.16,3.92,3.92,0,0,1-1.51-.28,3.63,3.63,0,0,1-1.2-.8,3.84,3.84,0,0,1-.81-1.22,4.32,4.32,0,0,1-.33-1.56,3.89,3.89,0,0,1,1.06-2.7,3.83,3.83,0,0,1,2.67-1.19,4,4,0,0,1,1.55.32,3.56,3.56,0,0,1,2,2.06,3.76,3.76,0,0,1,.23,1.47c0,.05,0,.13,0,.23s0,.18,0,.25Zm1.17-3.22a2,2,0,0,0-.59.55,2.76,2.76,0,0,0-.38.78,4.42,4.42,0,0,0-.19.92h4.06a3.19,3.19,0,0,0-.67-1.87,1.82,1.82,0,0,0-1.4-.58h0A1.53,1.53,0,0,0,284.24,61.8Z"/><path class="cls-2" d="M293,67.67a1.93,1.93,0,0,0,.56-.25A1.26,1.26,0,0,0,294,67a1.05,1.05,0,0,0,.14-.55A.84.84,0,0,0,294,66a1.53,1.53,0,0,0-.39-.38,2.87,2.87,0,0,0-.55-.29l-.65-.25q-.45-.16-.88-.35a3.56,3.56,0,0,1-.78-.47,2.14,2.14,0,0,1-.57-.68,2.05,2.05,0,0,1-.22-1,1.71,1.71,0,0,1,.23-.88,2.07,2.07,0,0,1,.63-.67,3,3,0,0,1,.91-.42,4,4,0,0,1,1.07-.14q.43,0,.77,0a3.92,3.92,0,0,1,.64.11,2.76,2.76,0,0,1,.56.21q.26.13.57.33a3.16,3.16,0,0,1,0,.54q0,.23,0,.46l-.4-.28a3.46,3.46,0,0,0-.49-.27,3.62,3.62,0,0,0-.65-.22,6.35,6.35,0,0,0-.88-.13,2.42,2.42,0,0,0-.58.07,1.74,1.74,0,0,0-.5.2,1.19,1.19,0,0,0-.36.33.78.78,0,0,0-.14.46.81.81,0,0,0,.15.49,1.62,1.62,0,0,0,.4.38,3.15,3.15,0,0,0,.57.31l.66.28.87.37a3.66,3.66,0,0,1,.78.47,2.21,2.21,0,0,1,.56.66,1.9,1.9,0,0,1,.22.93,2,2,0,0,1-.27,1.06,2.23,2.23,0,0,1-.7.73,3.1,3.1,0,0,1-1,.42,4.55,4.55,0,0,1-1.07.13q-.59,0-1.2-.09a7.53,7.53,0,0,1-1.25-.27L290,67.13a3.21,3.21,0,0,0,1.12.53,4.87,4.87,0,0,0,1.29.1A2.54,2.54,0,0,0,293,67.67Z"/><path class="cls-2" d="M299.58,67.67a1.93,1.93,0,0,0,.56-.25,1.26,1.26,0,0,0,.39-.4,1.05,1.05,0,0,0,.14-.55.84.84,0,0,0-.15-.5,1.53,1.53,0,0,0-.39-.38,2.87,2.87,0,0,0-.55-.29l-.65-.25q-.45-.16-.88-.35a3.56,3.56,0,0,1-.78-.47,2.14,2.14,0,0,1-.57-.68,2.05,2.05,0,0,1-.22-1,1.71,1.71,0,0,1,.23-.88,2.07,2.07,0,0,1,.63-.67,3,3,0,0,1,.91-.42,4,4,0,0,1,1.07-.14q.43,0,.77,0a3.92,3.92,0,0,1,.64.11,2.76,2.76,0,0,1,.56.21q.26.13.57.33a3.16,3.16,0,0,1,0,.54q0,.23,0,.46l-.4-.28a3.46,3.46,0,0,0-.49-.27,3.62,3.62,0,0,0-.65-.22,6.35,6.35,0,0,0-.88-.13,2.42,2.42,0,0,0-.58.07,1.74,1.74,0,0,0-.5.2,1.19,1.19,0,0,0-.36.33.78.78,0,0,0-.14.46.81.81,0,0,0,.15.49,1.62,1.62,0,0,0,.4.38,3.15,3.15,0,0,0,.57.31l.66.28.87.37a3.66,3.66,0,0,1,.78.47,2.21,2.21,0,0,1,.56.66,1.9,1.9,0,0,1,.22.93,2,2,0,0,1-.27,1.06,2.23,2.23,0,0,1-.7.73,3.1,3.1,0,0,1-1,.42,4.55,4.55,0,0,1-1.07.13q-.59,0-1.2-.09a7.53,7.53,0,0,1-1.25-.27l-.14-1.07a3.21,3.21,0,0,0,1.12.53,4.87,4.87,0,0,0,1.29.1A2.54,2.54,0,0,0,299.58,67.67Z"/><path class="cls-1" d="M70.36,11.35A5.67,5.67,0,1,1,76,5.67,5.68,5.68,0,0,1,70.36,11.35Zm0-10.64a5,5,0,1,0,5,5A5,5,0,0,0,70.36.71Z"/><path class="cls-1" d="M68.86,2.78a7.07,7.07,0,0,1,1.3-.11,2.15,2.15,0,0,1,1.52.43,1.31,1.31,0,0,1,.41,1,1.38,1.38,0,0,1-1,1.34v0a1.31,1.31,0,0,1,.77,1.06A8.36,8.36,0,0,0,72.28,8h-.7a6.8,6.8,0,0,1-.35-1.26c-.16-.73-.44-1-1.05-1h-.64V8h-.68Zm.68,2.4h.69c.73,0,1.19-.4,1.19-1s-.49-1-1.21-1a2.79,2.79,0,0,0-.67.06Z"/></g></g></svg>