<svg xmlns="http://www.w3.org/2000/svg" viewBox="0 0 18.39 22.16"><defs><style>.cls-1{fill:#b0b0b0;}.cls-2{fill:#b2b2b2;}</style></defs><title>mabv</title><g id="Layer_2" data-name="Layer 2"><g id="Layer_1-2" data-name="Layer 1"><path class="cls-1" d="M18.38,3.71a.6.6,0,0,0-.51-.59,19.37,19.37,0,0,1-4-1,29.88,29.88,0,0,1-4.34-2,.55.55,0,0,0-.59,0,29,29,0,0,1-4.33,2,19.6,19.6,0,0,1-4,1A.64.64,0,0,0,0,3.71q-.2,8.36,3.65,13.67A16.3,16.3,0,0,0,8.9,22.07a.58.58,0,0,0,.61,0,16.73,16.73,0,0,0,5.22-4.69q3.84-5.31,3.65-13.67Zm-4.63,13A15.55,15.55,0,0,1,9.2,20.88,15.37,15.37,0,0,1,4.64,16.7Q1.14,11.83,1.22,4.24A20.56,20.56,0,0,0,5,3.22,31.85,31.85,0,0,0,9.2,1.3a31.75,31.75,0,0,0,4.15,1.92,20.67,20.67,0,0,0,3.83,1q.06,7.64-3.42,12.46Zm0,0"/><path class="cls-2" d="M9.2,7.6a2.1,2.1,0,0,0-1.44,3.62v1.89a1.44,1.44,0,0,0,2.88,0V11.22A2.1,2.1,0,0,0,9.2,7.6Zm.74,2.88a1,1,0,0,0-.31.72v1.9a.43.43,0,0,1-.85,0v-1.9a1,1,0,0,0-.31-.72,1.07,1.07,0,0,1-.34-.79,1.08,1.08,0,1,1,2.16,0A1.07,1.07,0,0,1,9.94,10.49Z"/></g></g></svg>