<svg xmlns="http://www.w3.org/2000/svg" viewBox="0 0 31.46 27.54"><defs><style>.cls-1{fill:#6c492e;}</style></defs><title>Asset 27</title><g id="Layer_2" data-name="Layer 2"><g id="Layer_1-2" data-name="Layer 1"><path class="cls-1" d="M1.35,3.24H30.11a1.51,1.51,0,0,0,1.35-1.62A1.51,1.51,0,0,0,30.11,0H1.35A1.51,1.51,0,0,0,0,1.62,1.51,1.51,0,0,0,1.35,3.24Zm0,0"/><path class="cls-1" d="M1.35,15.39H30.11a1.51,1.51,0,0,0,1.35-1.62,1.51,1.51,0,0,0-1.35-1.62H1.35A1.51,1.51,0,0,0,0,13.77a1.51,1.51,0,0,0,1.35,1.62Zm0,0"/><path class="cls-1" d="M1.35,27.54H30.11a1.65,1.65,0,0,0,0-3.24H1.35a1.65,1.65,0,0,0,0,3.24Zm0,0"/></g></g></svg>