<svg id="Layer_1" data-name="Layer 1" xmlns="http://www.w3.org/2000/svg" viewBox="0 0 32.2 22.07"><defs><style>.cls-1{fill:#6c492e;}.cls-2{fill:#6b492e;}</style></defs><title>ngonngu</title><path class="cls-1" d="M9.48,10.72H5.81v3.4H9.9v1H4.59V5.7h5.1v1H5.81v3H9.48Z"/><path class="cls-1" d="M11.48,15.14V5.7h1.33l3,4.78a26.72,26.72,0,0,1,1.7,3.07h0c-.11-1.26-.14-2.41-.14-3.88V5.7h1.15v9.44H17.34l-3-4.79A30.08,30.08,0,0,1,12.57,7.2h0c.07,1.19.1,2.33.1,3.89v4Z"/><path class="cls-1" d="M27.88,14.72a8.78,8.78,0,0,1-2.9.52A4.85,4.85,0,0,1,21.45,14a4.86,4.86,0,0,1-1.32-3.52A4.74,4.74,0,0,1,25.25,5.6,5.83,5.83,0,0,1,27.6,6L27.3,7a4.9,4.9,0,0,0-2.09-.41,3.53,3.53,0,0,0-3.8,3.8,3.46,3.46,0,0,0,3.64,3.81A4,4,0,0,0,26.69,14V11.17H24.77v-1h3.11Z"/><path class="cls-2" d="M30.23,22.07H2a2,2,0,0,1-2-2V2A2,2,0,0,1,2,0H30.23a2,2,0,0,1,2,2V20.09A2,2,0,0,1,30.23,22.07ZM2,1.42A.56.56,0,0,0,1.42,2V20.09a.56.56,0,0,0,.56.56H30.23a.56.56,0,0,0,.56-.56V2a.56.56,0,0,0-.56-.56Z"/></svg>