<svg xmlns="http://www.w3.org/2000/svg" viewBox="0 0 19.1 22.24"><defs><style>.cls-1{fill:#b2b2b2;}</style></defs><title>pass</title><g id="Layer_2" data-name="Layer 2"><g id="Layer_1-2" data-name="Layer 1"><path class="cls-1" d="M9.55,12a2.44,2.44,0,0,0-2.61,2.21,2.07,2.07,0,0,0,.81,1.6v2a1.68,1.68,0,0,0,1.8,1.52,1.68,1.68,0,0,0,1.8-1.52v-2a2.07,2.07,0,0,0,.81-1.6A2.44,2.44,0,0,0,9.55,12Zm.92,3a1,1,0,0,0-.39.76v2a.54.54,0,0,1-1.06,0v-2a1,1,0,0,0-.39-.76,1.05,1.05,0,0,1-.42-.83,1.26,1.26,0,0,1,1.35-1.14,1.26,1.26,0,0,1,1.35,1.14A1.05,1.05,0,0,1,10.48,15.05Z"/><path class="cls-1" d="M17.21,9.12h-1.9V4.87C15.31,2.18,12.73,0,9.55,0S3.79,2.18,3.79,4.87V9.12H1.9A1.77,1.77,0,0,0,0,10.72v9.92a1.77,1.77,0,0,0,1.9,1.6H17.21a1.77,1.77,0,0,0,1.9-1.6V10.72A1.77,1.77,0,0,0,17.21,9.12ZM5.06,4.87c0-2.09,2-3.8,4.49-3.8S14,2.77,14,4.87V9.12h-9ZM17.84,20.64a.59.59,0,0,1-.63.53H1.9a.59.59,0,0,1-.63-.53V10.72a.59.59,0,0,1,.63-.53H17.21a.59.59,0,0,1,.63.53v9.92Z"/></g></g></svg>