<svg xmlns="http://www.w3.org/2000/svg" viewBox="0 0 19.99 20.08"><defs><style>.cls-1{fill:#b2b2b2;}</style></defs><title>phone_login</title><g id="Layer_2" data-name="Layer 2"><g id="Layer_1-2" data-name="Layer 1"><path class="cls-1" d="M16.83,12a2.1,2.1,0,0,0-1.52-.7,2.17,2.17,0,0,0-1.54.69l-1.42,1.42L12,13.2c-.16-.08-.31-.16-.45-.24a15.45,15.45,0,0,1-3.7-3.37A9.12,9.12,0,0,1,6.64,7.67c.37-.34.71-.69,1-1l.38-.38a2.06,2.06,0,0,0,0-3.11L6.83,1.93,6.41,1.5c-.27-.28-.55-.57-.85-.84A2.13,2.13,0,0,0,4.06,0,2.2,2.2,0,0,0,2.53.66h0L1,2.21A3.29,3.29,0,0,0,0,4.3,7.89,7.89,0,0,0,.59,7.64,19.37,19.37,0,0,0,4,13.38a21.17,21.17,0,0,0,7,5.52,11,11,0,0,0,4,1.17h.28A3.39,3.39,0,0,0,17.92,19l0,0a10.19,10.19,0,0,1,.79-.81c.19-.18.39-.38.58-.58A2.24,2.24,0,0,0,20,16a2.16,2.16,0,0,0-.69-1.54Zm1.61,4.74h0c-.18.19-.36.36-.55.55a11.83,11.83,0,0,0-.87.9,2.17,2.17,0,0,1-1.69.72h-.21a9.76,9.76,0,0,1-3.51-1.05A20,20,0,0,1,5,12.61,18.26,18.26,0,0,1,1.74,7.22a6.42,6.42,0,0,1-.5-2.82,2.06,2.06,0,0,1,.62-1.34L3.39,1.53a1,1,0,0,1,.68-.32,1,1,0,0,1,.66.31h0c.27.26.54.52.81.81L6,2.78,7.21,4a.86.86,0,0,1,0,1.39l-.39.39c-.38.39-.74.75-1.13,1.1l0,0a.92.92,0,0,0-.23,1V8A9.86,9.86,0,0,0,6.9,10.35h0a16.51,16.51,0,0,0,4,3.63,6.08,6.08,0,0,0,.55.3c.16.08.31.16.45.24l.05,0a1,1,0,0,0,.45.11,1,1,0,0,0,.68-.31l1.54-1.54a1,1,0,0,1,.68-.34.92.92,0,0,1,.65.33l2.49,2.49a.89.89,0,0,1,0,1.41Zm0,0"/></g></g></svg>