<svg xmlns="http://www.w3.org/2000/svg" viewBox="0 0 33.08 33.13"><defs><style>.cls-1{fill:#ead9c7;}</style></defs><title>phone</title><g id="Layer_2" data-name="Layer 2"><g id="Layer_1-2" data-name="Layer 1"><path class="cls-1" d="M26.16,20.52a3.26,3.26,0,0,0-2.36-1.08,3.37,3.37,0,0,0-2.39,1.08l-2.21,2.2-.54-.28c-.25-.13-.49-.24-.69-.37a24,24,0,0,1-5.75-5.24,14.17,14.17,0,0,1-1.89-3c.57-.52,1.1-1.07,1.62-1.59l.59-.59a3.21,3.21,0,0,0,0-4.84L10.62,4.91,10,4.24c-.42-.43-.86-.88-1.31-1.3a3.31,3.31,0,0,0-2.34-1,3.42,3.42,0,0,0-2.38,1h0L1.55,5.36A5.12,5.12,0,0,0,0,8.61a12.26,12.26,0,0,0,.9,5.19,30.1,30.1,0,0,0,5.35,8.92,32.9,32.9,0,0,0,11,8.58,17.07,17.07,0,0,0,6.15,1.82h.44a5.27,5.27,0,0,0,4-1.73l0,0a15.83,15.83,0,0,1,1.22-1.27c.3-.29.61-.59.91-.9a3.49,3.49,0,0,0,1.06-2.42A3.36,3.36,0,0,0,30,24.37Zm2.5,7.36h0c-.27.29-.55.56-.85.85a18.38,18.38,0,0,0-1.35,1.4,3.37,3.37,0,0,1-2.63,1.11h-.32a15.17,15.17,0,0,1-5.45-1.64A31.06,31.06,0,0,1,7.73,21.52a28.39,28.39,0,0,1-5-8.38,10,10,0,0,1-.78-4.38,3.21,3.21,0,0,1,1-2.08L5.27,4.3a1.59,1.59,0,0,1,1.06-.5,1.5,1.5,0,0,1,1,.49l0,0c.43.4.83.81,1.26,1.25l.66.68L11.2,8.15a1.33,1.33,0,0,1,0,2.17l-.6.6c-.59.6-1.15,1.16-1.75,1.71l0,0a1.43,1.43,0,0,0-.36,1.59l0,.06A15.33,15.33,0,0,0,10.73,18h0a25.66,25.66,0,0,0,6.21,5.65,9.45,9.45,0,0,0,.86.47c.25.13.49.24.69.37l.08,0a1.52,1.52,0,0,0,.69.17,1.49,1.49,0,0,0,1.06-.48l2.39-2.39a1.58,1.58,0,0,1,1.06-.52,1.42,1.42,0,0,1,1,.51l3.87,3.87a1.38,1.38,0,0,1,0,2.19Zm0,0"/><path class="cls-1" d="M17.88,7.88a9,9,0,0,1,7.33,7.33.94.94,0,0,0,.93.78h.16a.94.94,0,0,0,.78-1.09A10.88,10.88,0,0,0,18.21,6a1,1,0,0,0-1.09.77.93.93,0,0,0,.76,1.09Zm0,0"/><path class="cls-1" d="M33.06,14.61A17.92,17.92,0,0,0,18.47,0a.94.94,0,1,0-.31,1.86,16,16,0,0,1,13,13,.94.94,0,0,0,.93.78h.16a.93.93,0,0,0,.77-1.08Zm0,0"/></g></g></svg>