<svg xmlns="http://www.w3.org/2000/svg" viewBox="0 0 68.86 68.86"><defs><style>.cls-1{opacity:0.64;}.cls-2{fill:#fff;}</style></defs><title>play</title><g id="Layer_2" data-name="Layer 2"><g id="Layer_1-2" data-name="Layer 1"><g class="cls-1"><path class="cls-2" d="M64.24,17.22a34.42,34.42,0,1,0-12.6,47,34.41,34.41,0,0,0,12.6-47Zm-16,41.06A27.54,27.54,0,1,1,58.27,20.66,27.54,27.54,0,0,1,48.2,58.28ZM46.82,33l-18-10.51c-1.64-1-3-.19-3,1.71l.09,20.87c0,1.91,1.35,2.68,3,1.72L46.81,36.48c1.65-.95,1.65-2.5,0-3.46Zm0,0"/></g></g></g></svg>