<svg xmlns="http://www.w3.org/2000/svg" viewBox="0 0 25 26"><defs><style>.cls-1{fill:#6c492e;}</style></defs><title>reset</title><g id="Layer_2" data-name="Layer 2"><g id="Layer_1-2" data-name="Layer 1"><path class="cls-1" d="M25,11.49C25,5.15,19.39,0,12.5,0S0,5.15,0,11.49a.71.71,0,0,0,.74.68.71.71,0,0,0,.74-.68c0-5.58,4.94-10.12,11-10.12s11,4.54,11,10.12-4.94,10.12-11,10.12H11.21l1.84-1.89a.64.64,0,0,0-.06-1,.79.79,0,0,0-1,.05l-2.63,2.7a1.1,1.1,0,0,0,0,1.55l2.63,2.7a.79.79,0,0,0,1,.05.64.64,0,0,0,.06-1L11.21,23H12.5C19.39,23,25,17.82,25,11.49Z"/></g></g></svg>