<svg xmlns="http://www.w3.org/2000/svg" xmlns:xlink="http://www.w3.org/1999/xlink" viewBox="0 0 48.71 19.03"><defs><style>.cls-1{fill:url(#linear-gradient);}.cls-2{fill:#fff;}</style><linearGradient id="linear-gradient" x1="24.35" x2="24.35" y2="19.03" gradientUnits="userSpaceOnUse"><stop offset="0" stop-color="#374ea1"/><stop offset="1" stop-color="#2b388f"/></linearGradient></defs><title>share</title><g id="Layer_2" data-name="Layer 2"><g id="Layer_1-2" data-name="Layer 1"><rect class="cls-1" width="48.71" height="19.03" rx="4" ry="4"/><path class="cls-2" d="M11.6,9.68l1.09.26a3.37,3.37,0,0,1-1.23,1.9,3.59,3.59,0,0,1-2.18.65A4.16,4.16,0,0,1,7.11,12a3.21,3.21,0,0,1-1.27-1.46,4.87,4.87,0,0,1-.44-2A4.23,4.23,0,0,1,5.9,6.4,3.25,3.25,0,0,1,7.3,5.05a4.35,4.35,0,0,1,2-.46,3.57,3.57,0,0,1,2.08.58,3,3,0,0,1,1.18,1.64L11.48,7a2.35,2.35,0,0,0-.83-1.21,2.34,2.34,0,0,0-1.37-.38,2.82,2.82,0,0,0-1.59.42A2.25,2.25,0,0,0,6.79,7a4.25,4.25,0,0,0-.26,1.47,4.35,4.35,0,0,0,.31,1.7,2.16,2.16,0,0,0,1,1.09,2.84,2.84,0,0,0,1.4.36A2.32,2.32,0,0,0,11.6,9.68Z"/><path class="cls-2" d="M13.91,12.36V4.72h1V7.46a2.34,2.34,0,0,1,1.79-.76,2.57,2.57,0,0,1,1.15.24,1.48,1.48,0,0,1,.7.67,2.88,2.88,0,0,1,.21,1.24v3.51h-1V8.85a1.38,1.38,0,0,0-.33-1,1.28,1.28,0,0,0-.93-.32,1.75,1.75,0,0,0-.85.22,1.26,1.26,0,0,0-.56.59,2.52,2.52,0,0,0-.17,1v3Z"/><path class="cls-2" d="M20.32,5.8V4.72h1V5.8Zm0,6.56V6.83h1v5.53Z"/><path class="cls-2" d="M26.77,11.67a3.8,3.8,0,0,1-1.08.63,3.34,3.34,0,0,1-1.12.18A2.28,2.28,0,0,1,23.06,12a1.49,1.49,0,0,1-.33-1.88,1.58,1.58,0,0,1,.52-.54A2.57,2.57,0,0,1,24,9.31a7.83,7.83,0,0,1,.9-.14,9.88,9.88,0,0,0,1.81-.32c0-.13,0-.21,0-.25a1,1,0,0,0-.29-.81,1.79,1.79,0,0,0-1.15-.32,1.9,1.9,0,0,0-1.05.23,1.4,1.4,0,0,0-.5.82l-1-.12a2.19,2.19,0,0,1,.44-1A2,2,0,0,1,24,6.9a4.29,4.29,0,0,1,1.35-.2,3.84,3.84,0,0,1,1.24.17,1.66,1.66,0,0,1,.7.42,1.44,1.44,0,0,1,.31.64,4.88,4.88,0,0,1,.05.86V10a12.35,12.35,0,0,0,.06,1.65,2,2,0,0,0,.26.66H27A1.88,1.88,0,0,1,26.77,11.67Zm-.08-2.09A8,8,0,0,1,25,9.94a4.09,4.09,0,0,0-.88.19.87.87,0,0,0-.4.3.76.76,0,0,0-.14.45.77.77,0,0,0,.31.63,1.39,1.39,0,0,0,.9.25,2.22,2.22,0,0,0,1-.24,1.52,1.52,0,0,0,.67-.65,2.12,2.12,0,0,0,.16-.94Z"/><path class="cls-2" d="M32.07,10.71l1-.15a1.27,1.27,0,0,0,.47.85,1.73,1.73,0,0,0,1.08.3,1.67,1.67,0,0,0,1-.26.77.77,0,0,0,.34-.62.56.56,0,0,0-.3-.5,4.62,4.62,0,0,0-1-.32,10,10,0,0,1-1.54-.45A1.46,1.46,0,0,1,32.46,9a1.32,1.32,0,0,1-.22-.74,1.34,1.34,0,0,1,.18-.68,1.56,1.56,0,0,1,.5-.52,2.16,2.16,0,0,1,.64-.27,3.27,3.27,0,0,1,.87-.11,3.71,3.71,0,0,1,1.23.19,1.69,1.69,0,0,1,.78.51,1.9,1.9,0,0,1,.35.86l-1,.13a1,1,0,0,0-.39-.67,1.51,1.51,0,0,0-.91-.24,1.76,1.76,0,0,0-1,.21.61.61,0,0,0-.3.5.49.49,0,0,0,.12.33.88.88,0,0,0,.39.25l.89.24a13.26,13.26,0,0,1,1.5.43,1.52,1.52,0,0,1,.67.49,1.3,1.3,0,0,1,.24.8,1.49,1.49,0,0,1-.3.88,1.88,1.88,0,0,1-.85.64,3.31,3.31,0,0,1-1.26.23A3,3,0,0,1,32.85,12,2,2,0,0,1,32.07,10.71Z"/><path class="cls-2" d="M42.32,10.58l1,.12A2.36,2.36,0,0,1,42.45,12a2.91,2.91,0,0,1-1.71.47,2.85,2.85,0,0,1-2.08-.75,2.79,2.79,0,0,1-.77-2.1,2.92,2.92,0,0,1,.78-2.17,2.73,2.73,0,0,1,2-.77,2.65,2.65,0,0,1,2,.76,2.86,2.86,0,0,1,.76,2.13c0,.06,0,.14,0,.25H38.94a2,2,0,0,0,.56,1.4,1.72,1.72,0,0,0,1.25.49,1.64,1.64,0,0,0,1-.27A1.8,1.8,0,0,0,42.32,10.58ZM39,9.06h3.33A1.79,1.79,0,0,0,42,8a1.6,1.6,0,0,0-1.25-.54,1.68,1.68,0,0,0-1.17.43A1.65,1.65,0,0,0,39,9.06Zm1.81-3.6q.3-.09.3-.29c0-.08,0-.15-.16-.2a1.76,1.76,0,0,0-.75-.12l-.53,0-.06-.53a4.92,4.92,0,0,1,.81,0,2.74,2.74,0,0,1,1.13.21.7.7,0,0,1,.49.61q0,.65-1,.77v.26H40.4V5.51Z"/></g></g></svg>