<svg xmlns="http://www.w3.org/2000/svg" viewBox="0 0 39.63 39.63"><defs><style>.cls-1{fill:#ead9c7;}</style></defs><title>snap</title><g id="Layer_2" data-name="Layer 2"><g id="Layer_1-2" data-name="Layer 1"><path class="cls-1" d="M19.81,0A19.81,19.81,0,1,0,39.63,19.81,19.84,19.84,0,0,0,19.81,0Zm0,36.82a17,17,0,1,1,17-17A17,17,0,0,1,19.81,36.82Z"/><path class="cls-1" d="M20.85,10.26c-5.81,0-8.74,4.17-8.74,7.64,0,2.1.8,4,2.5,4.67a.42.42,0,0,0,.61-.31l.25-1a.59.59,0,0,0-.18-.68,3.53,3.53,0,0,1-.81-2.4,5.79,5.79,0,0,1,6-5.86c3.28,0,5.09,2,5.09,4.69,0,3.53-1.56,6.5-3.88,6.5a1.89,1.89,0,0,1-1.93-2.36,26.15,26.15,0,0,0,1.08-4.34A1.64,1.64,0,0,0,19.22,15c-1.31,0-2.36,1.35-2.36,3.17a4.7,4.7,0,0,0,.39,1.94l-1.57,6.66a13.71,13.71,0,0,0,0,4.65.16.16,0,0,0,.29.07,13,13,0,0,0,2.21-4c.15-.54.86-3.36.86-3.36a3.5,3.5,0,0,0,3,1.52c3.93,0,6.6-3.58,6.6-8.38C28.59,13.64,25.52,10.26,20.85,10.26Z"/></g></g></svg>