<svg xmlns="http://www.w3.org/2000/svg" viewBox="0 0 56.48 36.35"><defs><style>.cls-1{fill:#6b492e;}</style></defs><title>spa</title><g id="Layer_2" data-name="Layer 2"><g id="Layer_1-2" data-name="Layer 1"><path class="cls-1" d="M56.13,15.31c-3.13-2.54-14-11.16-19.72-14A8.58,8.58,0,0,0,33.77.61C26.38-1.81,18,3.73,17.62,4L.91,15a2.06,2.06,0,0,0-.6,2.81A2,2,0,0,0,2,18.72a1.93,1.93,0,0,0,1.07-.32l5-3.27V36.35H41.84V24.53s-13,.38-22.49-13.1l-7.64,4.24V31.88h-.86V13.26l8.92-5.88a21.33,21.33,0,0,1,3.67-1.89c9.53-1,22.22,6.73,25.72,9,.52.34.47.44-.11.22C32.22,8.21,24.34,8.22,21,8.9a.66.66,0,0,0-.36,1.15c3.67,4.39,9.86,10.45,16.73,11.39,8.88,1.23,16.22-3.08,18.71-4.78A.82.82,0,0,0,56.13,15.31ZM21.2,31.55c-1.1,0-1.68-.33-2.56-.33s-1.41.23-2.51.23a1.62,1.62,0,0,1-1.49-1.74c0-.66.34-1.1,1.14-1.74a7.83,7.83,0,0,0,1.57-1.64,1.51,1.51,0,0,1,1.28-.65,1.37,1.37,0,0,1,1.25.56,9.59,9.59,0,0,0,1.8,1.88c.88.75,1.07,1.12,1.07,1.77A1.61,1.61,0,0,1,21.2,31.55Zm1.09-7a1.49,1.49,0,0,1,1.22,1.52c0,.94-.51,1.38-1.17,1.39s-1.21-.42-1.22-1.36S21.63,24.61,22.3,24.6Zm-3-1.56a1.42,1.42,0,0,1,1.53-1.2,1.56,1.56,0,0,1,.75,1.76A1.42,1.42,0,0,1,20,24.8,1.36,1.36,0,0,1,19.29,23Zm-1.79-1.41c.63,0,1.14.68,1.14,1.52s-.51,1.52-1.14,1.52-1.14-.68-1.14-1.52S16.88,21.63,17.51,21.63Zm-2.42,2.26c.65,0,1.22.61,1.28,1.45a1.38,1.38,0,0,1-1.06,1.61c-.65,0-1.22-.61-1.28-1.45A1.38,1.38,0,0,1,15.09,23.88Z"/></g></g></svg>