<svg xmlns="http://www.w3.org/2000/svg" viewBox="0 0 17 17"><defs><style>.cls-1{fill:#6c492e;}</style></defs><title>star0</title><g id="Layer_2" data-name="Layer 2"><g id="Layer_1-2" data-name="Layer 1"><path class="cls-1" d="M9.32.53,11.24,4.6a.92.92,0,0,0,.69.52l4.29.65a1,1,0,0,1,.51,1.63l-3.1,3.16a1,1,0,0,0-.26.85l.73,4.47a.92.92,0,0,1-1.33,1L8.93,14.78a.88.88,0,0,0-.85,0L4.24,16.89a.92.92,0,0,1-1.33-1l.73-4.47a1,1,0,0,0-.26-.85L.28,7.4A1,1,0,0,1,.78,5.77l4.29-.65a.92.92,0,0,0,.69-.52L7.68.53a.9.9,0,0,1,1.64,0Zm0,0"/></g></g></svg>