<svg xmlns="http://www.w3.org/2000/svg" viewBox="0 0 16.66 15.75"><defs><style>.cls-1{fill:#b2b2b2;}</style></defs><title>sua</title><g id="Layer_2" data-name="Layer 2"><g id="Layer_1-2" data-name="Layer 1"><path class="cls-1" d="M15.72,13.93H6.29l9.88-9.58a.89.89,0,0,0,0-1.29L13.3.27A1,1,0,0,0,12,.27L2.45,9.49l-.61.6a.91.91,0,0,0-.21.32L.06,14.53a.89.89,0,0,0,.2.94,1,1,0,0,0,.68.29,1,1,0,0,0,.24,0,.94.94,0,0,0,.23,0h14.3a.91.91,0,1,0,0-1.83ZM12.63,2.21,14.17,3.7,6,11.6,4.48,10.11Zm-9.31,9,.49-.48,1.54,1.49,0,0-.45.44-2.4.71Zm0,0"/></g></g></svg>