<svg xmlns="http://www.w3.org/2000/svg" viewBox="0 0 52.63 47.14"><defs><style>.cls-1{fill:#6b492e;}</style></defs><title>suckhoe</title><g id="Layer_2" data-name="Layer 2"><g id="Layer_1-2" data-name="Layer 1"><ellipse class="cls-1" cx="17.63" cy="9.67" rx="2.89" ry="3.91" transform="matrix(1, -0.07, 0.07, 1, -0.63, 1.25)"/><ellipse class="cls-1" cx="23.32" cy="3.88" rx="2.81" ry="3.88"/><path class="cls-1" d="M29.56,8.12c1.55.4,3.23-1,3.77-3.08A4,4,0,0,0,31.49.53c-1.55-.39-3.23,1-3.77,3.08S28,7.72,29.56,8.12Z"/><path class="cls-1" d="M35.12,7.59c-1.63,0-2.92,1.57-2.89,4s1.38,3.49,3,3.47,2.92-1.16,2.88-3.56A3.75,3.75,0,0,0,35.12,7.59Z"/><path class="cls-1" d="M33.62,16.6A24.13,24.13,0,0,1,29.2,11.8a3.33,3.33,0,0,0-3.08-1.43A3.67,3.67,0,0,0,23,12a19.72,19.72,0,0,1-3.88,4.18c-2,1.64-2.81,2.78-2.81,4.45s1,4.45,3.67,4.45,4-.6,6.18-.6,3.58.84,6.3.84,3.85-2.57,3.85-4.24S35.8,18.51,33.62,16.6ZM31.21,20a.6.6,0,0,1-.6.6H28.93a.6.6,0,0,0-.6.6v1.68a.6.6,0,0,1-.6.6h-2.6a.6.6,0,0,1-.6-.6V21.17a.6.6,0,0,0-.6-.6H22.25a.6.6,0,0,1-.6-.6v-2.6a.6.6,0,0,1,.6-.6h1.68a.6.6,0,0,0,.6-.6V14.49a.6.6,0,0,1,.6-.6h2.6a.6.6,0,0,1,.6.6v1.68a.6.6,0,0,0,.6.6h1.68a.6.6,0,0,1,.6.6Z"/><path class="cls-1" d="M15.7,25.75a7.44,7.44,0,0,1-2.85-2c-1.58-1.65-3.27-3.9-5.46-3.87h0a2.88,2.88,0,0,0-2,.89c-1.45,1.45-.87,3.67.39,4.92l4.07,4.07a2,2,0,0,1,0,2.86l-5.5-5.5a6.34,6.34,0,0,1-1.78-3.55,5,5,0,0,1,4.39-5.67l-.82-3.32C6,2.24,0,3.74,0,6.64V28.26a5,5,0,0,0,1.47,3.56C11.52,42,10.12,38.71,10.12,47.14H22.27V35.72C22.27,30.2,19.44,27,15.7,25.75Z"/><path class="cls-1" d="M52.63,6.64c0-2.9-6-4.4-6.07,7.91l-.82,3.32a5,5,0,0,1,4.39,5.67,6.34,6.34,0,0,1-1.78,3.55l-5.5,5.5a2,2,0,0,1,0-2.86l4.07-4.07c1.25-1.25,1.84-3.47.39-4.92a2.88,2.88,0,0,0-2-.89h0c-2.19,0-3.88,2.22-5.46,3.87a7.44,7.44,0,0,1-2.85,2c-3.74,1.22-6.57,4.45-6.57,10V47.14H42.51c0-8.43-1.4-5.16,8.66-15.32a5,5,0,0,0,1.47-3.56Z"/></g></g></svg>