<svg xmlns="http://www.w3.org/2000/svg" xmlns:xlink="http://www.w3.org/1999/xlink" viewBox="0 0 53.87 19.03"><defs><style>.cls-1{fill:url(#linear-gradient);}.cls-2{fill:#fff;}</style><linearGradient id="linear-gradient" x1="26.93" y1="0.61" x2="26.93" y2="15.49" gradientUnits="userSpaceOnUse"><stop offset="0" stop-color="#374ea1"/><stop offset="1" stop-color="#2b388f"/></linearGradient></defs><title>thich</title><g id="Layer_2" data-name="Layer 2"><g id="Layer_1-2" data-name="Layer 1"><rect class="cls-1" width="53.87" height="19.03" rx="3.87" ry="3.87"/><path class="cls-2" d="M16,3.1h-9A1.94,1.94,0,0,0,5.12,5v9a1.94,1.94,0,0,0,1.93,1.94h4.42V11.44h-1V9.88h1V9a1.72,1.72,0,0,1,1.05-1.83A2.74,2.74,0,0,1,13.47,7H15V8.51h-.91a.58.58,0,0,0-.53.21.86.86,0,0,0-.09.46v.7H15l-.19,1.56H13.47v4.48H16A1.94,1.94,0,0,0,17.94,14V5A1.94,1.94,0,0,0,16,3.1Z"/><path class="cls-2" d="M23.83,12.36V5.62H21.11v-.9h6.53v.9H24.92v6.74Z"/><path class="cls-2" d="M28.63,12.36V4.72h1V7.46a2.34,2.34,0,0,1,1.79-.76,2.57,2.57,0,0,1,1.15.24,1.48,1.48,0,0,1,.7.67,2.88,2.88,0,0,1,.21,1.24v3.51h-1V8.85a1.38,1.38,0,0,0-.33-1,1.28,1.28,0,0,0-.93-.32,1.75,1.75,0,0,0-.85.22,1.26,1.26,0,0,0-.56.59,2.52,2.52,0,0,0-.17,1v3Z"/><path class="cls-2" d="M35.34,6.14l.75-1.46h1.33L36.18,6.14Zm.05,6.22V6.83h1v5.53Z"/><path class="cls-2" d="M42.13,10.33l1,.12a2.34,2.34,0,0,1-.83,1.49,2.55,2.55,0,0,1-1.65.54,2.67,2.67,0,0,1-2-.74,2.87,2.87,0,0,1-.75-2.13A3.6,3.6,0,0,1,38.25,8a2.14,2.14,0,0,1,1-1,3.08,3.08,0,0,1,1.43-.34,2.61,2.61,0,0,1,1.59.46A2.06,2.06,0,0,1,43,8.45l-1,.14a1.49,1.49,0,0,0-.5-.84,1.35,1.35,0,0,0-.86-.28A1.63,1.63,0,0,0,39.45,8,2.28,2.28,0,0,0,39,9.59a2.36,2.36,0,0,0,.46,1.62,1.55,1.55,0,0,0,1.2.51,1.49,1.49,0,0,0,1-.34A1.63,1.63,0,0,0,42.13,10.33Z"/><path class="cls-2" d="M44,12.36V4.72h1V7.46A2.34,2.34,0,0,1,46.8,6.7a2.57,2.57,0,0,1,1.15.24,1.48,1.48,0,0,1,.7.67,2.88,2.88,0,0,1,.21,1.24v3.51h-1V8.85a1.38,1.38,0,0,0-.33-1,1.28,1.28,0,0,0-.93-.32,1.75,1.75,0,0,0-.85.22,1.26,1.26,0,0,0-.56.59,2.52,2.52,0,0,0-.17,1v3Z"/></g></g></svg>