<svg xmlns="http://www.w3.org/2000/svg" viewBox="0 0 54 51.4"><defs><style>.cls-1{fill:#6b492e;}.cls-2{fill:none;}</style></defs><title>thucung</title><g id="Layer_2" data-name="Layer 2"><g id="Layer_1-2" data-name="Layer 1"><path class="cls-1" d="M21,14.93a5.41,5.41,0,0,0-4.65,5.62c0,.17.06.6.06.6a3.78,3.78,0,0,0,3.74,3.25,3.68,3.68,0,0,0,.54,0h.08a3.79,3.79,0,0,0,3.21-4.28l-.78-5.45Zm0,0"/><path class="cls-1" d="M43.14,12.33a22.83,22.83,0,0,0-7.27-4.9,22.4,22.4,0,0,0-2.31-.83l-2,1.85.36,1.78.09.44A18.53,18.53,0,0,1,45.48,28c0,.11,0,.21,0,.32A18.53,18.53,0,0,1,27,46.87h-.34v-.75a.75.75,0,0,1,.48-.72l3.58-1.34a2.75,2.75,0,0,0,2.41-1.17L34,41.25a.78.78,0,0,0-.15-1c-.85-.79-2.13-2-2.24-3-.19-1.58-2.42-2.9-5.32-3.08A4.6,4.6,0,0,1,24.61,31c0-.31-.18-.62-.48-.54-.77.19-2.08,1.18-2.15,5.72,0,0-4.11,2.08-4.49,8-.33-.19-.66-.39-1-.61a12,12,0,0,1,1.14-4.35A9.92,9.92,0,0,1,21,35.39c.17-4.48,1.62-5.78,2.83-6.08a1.29,1.29,0,0,1,1.07.22,1.55,1.55,0,0,1,.6,1.16,3.75,3.75,0,0,0,1.11,2.39,10.58,10.58,0,0,1,1.56.26l0-.42.38-3.65A1.46,1.46,0,0,1,29.82,28c2.33-.34,7.51-1.71,7.84-7.31,0-.19,0-.39,0-.57a.93.93,0,0,0-.74-.91l-5.29-1.11a10.36,10.36,0,0,0-7.48-3.59l.77,5.39a4.79,4.79,0,0,1-4.07,5.42h-.08A4.88,4.88,0,0,1,16,23.09V27c0,4.7-6,8.49-6,8.49a18.36,18.36,0,0,1-1.46-7.16c0-.11,0-.21,0-.33A18.53,18.53,0,0,1,21.91,10.7l.08-.49.27-1.74L20.38,6.62a22.22,22.22,0,0,0-2.28.83A22.88,22.88,0,1,0,49.87,28.52,23.39,23.39,0,0,0,48,19.6a22.74,22.74,0,0,0-4.9-7.27ZM29.51,37.57a.63.63,0,0,1,.63.63h0a.63.63,0,0,1-1.26,0h0a.63.63,0,0,1,.63-.63Zm-.63-18.19a.63.63,0,1,1-.63.63.62.62,0,0,1,.63-.63Zm0,0"/><path class="cls-1" d="M33.38,5.38a.53.53,0,0,0-.28-.91l-3.7-.53L27.47.28a.53.53,0,0,0-.93,0L24.6,3.93l-3.74.54a.53.53,0,0,0-.3.9l.93.93L23.33,8.1,23,10.36v.06l-.26,1.69a.53.53,0,0,0,.52.61.5.5,0,0,0,.23-.05l2.4-1.12L27,11l1.19.56,2.3,1.08a.57.57,0,0,0,.23,0,.53.53,0,0,0,.52-.64l-.33-1.63v0l-.47-2.31,2-1.81Zm0,0"/><rect class="cls-2" y="4.2" width="54" height="43"/></g></g></svg>