<svg xmlns="http://www.w3.org/2000/svg" viewBox="0 0 23.21 16.04"><defs><style>.cls-1{fill:#fff;}</style></defs><title>tinnhan</title><g id="Layer_2" data-name="Layer 2"><g id="Layer_1-2" data-name="Layer 1"><path class="cls-1" d="M12.55,8.89l10-8.74A1.17,1.17,0,0,0,22,0H1.2A1.16,1.16,0,0,0,.64.16l10,8.74A1.5,1.5,0,0,0,12.55,8.89Z"/><path class="cls-1" d="M19.56,12.13a.4.4,0,0,1-.28.69.4.4,0,0,1-.27-.11l-4.6-4.32,0,0L13.07,9.5a2.3,2.3,0,0,1-2.94,0L8.83,8.36l0,0L4.2,12.71a.4.4,0,0,1-.57,0,.4.4,0,0,1,0-.57L8.23,7.83.09.74A1.19,1.19,0,0,0,0,1.2V14.84A1.2,1.2,0,0,0,1.2,16H22a1.2,1.2,0,0,0,1.2-1.2V1.2a1.2,1.2,0,0,0-.09-.46L15,7.83Z"/></g></g></svg>