<svg xmlns="http://www.w3.org/2000/svg" viewBox="0 0 28 30"><defs><style>.cls-1{fill:#6c492e;}</style></defs><title>user</title><g id="Layer_2" data-name="Layer 2"><g id="Layer_1-2" data-name="Layer 1"><path class="cls-1" d="M13.88,16.16h.22a6.58,6.58,0,0,0,4.81-1.89C21.53,11.57,21.09,7,21,6.51A6.26,6.26,0,0,0,17.74.88,8.16,8.16,0,0,0,14.07,0H14a8.19,8.19,0,0,0-3.67.85A6.27,6.27,0,0,0,6.94,6.51c0,.44-.48,5.06,2.14,7.76a6.56,6.56,0,0,0,4.8,1.89ZM8.76,6.67s0,0,0,0C9,2.16,12.46,1.68,13.95,1.68H14c1.84,0,5,.72,5.18,4.93a.11.11,0,0,0,0,0s.48,4.27-1.68,6.49A4.69,4.69,0,0,1,14,14.49H14a4.67,4.67,0,0,1-3.5-1.33C8.29,10.95,8.75,6.7,8.76,6.67Zm0,0"/><path class="cls-1" d="M28,23.83v0s0-.1,0-.16c0-1.23-.13-4.11-3.09-5l-.07,0a20.56,20.56,0,0,1-5.66-2.35,1,1,0,0,0-1.28.2.79.79,0,0,0,.22,1.17,22.2,22.2,0,0,0,6.22,2.59c1.59.52,1.77,2.06,1.81,3.48a1.11,1.11,0,0,0,0,.16A10.32,10.32,0,0,1,26,25.78a27,27,0,0,1-12,2.55A27.18,27.18,0,0,1,2,25.78a9.74,9.74,0,0,1-.14-1.92s0-.1,0-.16c0-1.42.23-3,1.81-3.48a22.37,22.37,0,0,0,6.22-2.59.79.79,0,0,0,.23-1.17,1,1,0,0,0-1.28-.21,20.32,20.32,0,0,1-5.66,2.35l-.07,0c-3,.93-3,3.8-3.09,5a1.15,1.15,0,0,1,0,.16v0a8.72,8.72,0,0,0,.35,2.81A.82.82,0,0,0,.7,27c.2.12,5.11,3,13.31,3s13.1-2.85,13.31-3a.85.85,0,0,0,.35-.39A9.15,9.15,0,0,0,28,23.83Zm0,0"/></g></g></svg>