<svg xmlns="http://www.w3.org/2000/svg" viewBox="0 0 19.47 22.89"><defs><style>.cls-1{fill:#b2b2b2;}</style></defs><title>user_login</title><g id="Layer_2" data-name="Layer 2"><g id="Layer_1-2" data-name="Layer 1"><path class="cls-1" d="M9.65,12.33H9.8a4.37,4.37,0,0,0,3.34-1.45C15,8.83,14.67,5.3,14.64,5a4.84,4.84,0,0,0-2.3-4.3A5.27,5.27,0,0,0,9.79,0H9.71A5.28,5.28,0,0,0,7.15.65,4.84,4.84,0,0,0,4.83,5c0,.34-.34,3.86,1.49,5.92a4.36,4.36,0,0,0,3.34,1.45ZM6.09,5.09s0,0,0,0c.16-3.4,2.57-3.76,3.6-3.76h.06c1.28,0,3.46.55,3.6,3.76a.09.09,0,0,0,0,0s.34,3.26-1.17,5a3.11,3.11,0,0,1-2.44,1h0a3.1,3.1,0,0,1-2.44-1c-1.5-1.69-1.18-4.93-1.18-5Zm0,0"/><path class="cls-1" d="M19.47,18.18h0s0-.08,0-.12c0-.94-.09-3.13-2.15-3.84h0a13.68,13.68,0,0,1-3.93-1.79.64.64,0,0,0-.73,1,14.78,14.78,0,0,0,4.33,2c1.1.39,1.23,1.57,1.26,2.65a.93.93,0,0,0,0,.12,8.63,8.63,0,0,1-.1,1.46,17.45,17.45,0,0,1-8.36,1.94,17.55,17.55,0,0,1-8.36-1.95,8.14,8.14,0,0,1-.1-1.46s0-.08,0-.12c0-1.08.16-2.26,1.26-2.65a14.89,14.89,0,0,0,4.33-2,.64.64,0,1,0-.73-1A13.53,13.53,0,0,1,2.2,14.2h0C.1,14.92,0,17.11,0,18a1,1,0,0,1,0,.12H0a7.27,7.27,0,0,0,.24,2.15.61.61,0,0,0,.25.3,17.93,17.93,0,0,0,9.25,2.27A18,18,0,0,0,19,20.63a.63.63,0,0,0,.25-.3,7.63,7.63,0,0,0,.23-2.14Zm0,0"/></g></g></svg>