<svg xmlns="http://www.w3.org/2000/svg" viewBox="0 0 37 37"><defs><style>.cls-1{fill:#6e2302;}.cls-2{fill:none;}</style></defs><title>vanchuyen_1</title><g id="Layer_2" data-name="Layer 2"><g id="Layer_1-2" data-name="Layer 1"><path class="cls-1" d="M31,26.32a1.42,1.42,0,1,0,1.42,1.42A1.42,1.42,0,0,0,31,26.32Zm0,0"/><path class="cls-1" d="M30.3,20.63a.71.71,0,1,0,.71.71.71.71,0,0,0-.71-.71Zm0,0"/><path class="cls-1" d="M9.26,26.32a1.42,1.42,0,1,0,1.42,1.42,1.42,1.42,0,0,0-1.42-1.42Zm0,0"/><path class="cls-1" d="M33.71,17.83l-1.23-4.9A2.13,2.13,0,0,0,31,9.26H25.32V7.13A2.14,2.14,0,0,0,23.19,5H2.43A2.14,2.14,0,0,0,.3,7.13V25.61a2.14,2.14,0,0,0,2.13,2.13H5a4.27,4.27,0,0,0,8.53,0H26.75a4.27,4.27,0,1,0,8.53,0s0-.08,0-.12a2.14,2.14,0,0,0,1.42-2V21.34a3.56,3.56,0,0,0-3-3.51Zm-2.54-4.31,1.07,4.27h-5.9L28,16.16a.71.71,0,0,0-1-1l-1.63,1.63V13.52Zm.56-2.13a.71.71,0,0,1-.71.71H25.32V10.68H31a.71.71,0,0,1,.71.71ZM9.26,30.59a2.84,2.84,0,1,1,2.84-2.84,2.85,2.85,0,0,1-2.84,2.84Zm4-4.27a4.27,4.27,0,0,0-8,0H2.43a.71.71,0,0,1-.71-.71V7.13a.71.71,0,0,1,.71-.71H23.19a.71.71,0,0,1,.71.71V26.32ZM31,30.59a2.84,2.84,0,1,1,2.84-2.84A2.85,2.85,0,0,1,31,30.59Zm4-4.4a4.27,4.27,0,0,0-8,.14H25.32V19.21h7.82a2.14,2.14,0,0,1,2,1.42h-2a.71.71,0,0,0,0,1.42h2.13v3.55a.71.71,0,0,1-.29.58Zm0,0"/><path class="cls-1" d="M12.81,9.26a6.4,6.4,0,1,0,6.4,6.4,6.41,6.41,0,0,0-6.4-6.4Zm0,11.37a5,5,0,1,1,5-5,5,5,0,0,1-5,5Zm0,0"/><path class="cls-1" d="M15.66,14.95H13.52V12.81a.71.71,0,1,0-1.42,0v2.84a.71.71,0,0,0,.71.71h2.84a.71.71,0,1,0,0-1.42Zm0,0"/><rect class="cls-2" width="37" height="37"/></g></g></svg>