<svg xmlns="http://www.w3.org/2000/svg" viewBox="0 0 36.4 27.01"><defs><style>.cls-1{fill:#6e2302;}</style></defs><title>vanchuyen</title><g id="Layer_2" data-name="Layer 2"><g id="Layer_1-2" data-name="Layer 1"><path class="cls-1" d="M30.71,21.33a1.42,1.42,0,1,0,1.42,1.42,1.42,1.42,0,0,0-1.42-1.42Zm0,0"/><path class="cls-1" d="M30,15.64a.71.71,0,1,0,.71.71.71.71,0,0,0-.71-.71Zm0,0"/><path class="cls-1" d="M9,21.33a1.42,1.42,0,1,0,1.42,1.42A1.42,1.42,0,0,0,9,21.33Zm0,0"/><path class="cls-1" d="M33.41,12.84l-1.23-4.9a2.13,2.13,0,0,0-1.47-3.67H25V2.13A2.14,2.14,0,0,0,22.89,0H2.13A2.14,2.14,0,0,0,0,2.13V20.62a2.14,2.14,0,0,0,2.13,2.13H4.69a4.27,4.27,0,0,0,8.53,0H26.45a4.27,4.27,0,1,0,8.53,0s0-.08,0-.12a2.14,2.14,0,0,0,1.42-2V16.35a3.56,3.56,0,0,0-3-3.51ZM30.87,8.53l1.07,4.27H26l1.63-1.63a.71.71,0,0,0-1-1L25,11.79V8.53Zm.56-2.13a.71.71,0,0,1-.71.71H25V5.69h5.69a.71.71,0,0,1,.71.71ZM9,25.59a2.84,2.84,0,1,1,2.84-2.84A2.85,2.85,0,0,1,9,25.59Zm4-4.27a4.27,4.27,0,0,0-8,0H2.13a.71.71,0,0,1-.71-.71V2.13a.71.71,0,0,1,.71-.71H22.89a.71.71,0,0,1,.71.71V21.33Zm17.73,4.27a2.84,2.84,0,1,1,2.84-2.84,2.85,2.85,0,0,1-2.84,2.84Zm4-4.4a4.27,4.27,0,0,0-8,.14H25V14.22h7.82a2.14,2.14,0,0,1,2,1.42h-2a.71.71,0,0,0,0,1.42H35v3.55a.71.71,0,0,1-.29.58Zm0,0"/><path class="cls-1" d="M12.51,4.27a6.4,6.4,0,1,0,6.4,6.4,6.41,6.41,0,0,0-6.4-6.4Zm0,11.37a5,5,0,1,1,5-5,5,5,0,0,1-5,5Zm0,0"/><path class="cls-1" d="M15.36,10H13.22V7.82a.71.71,0,1,0-1.42,0v2.84a.71.71,0,0,0,.71.71h2.84a.71.71,0,1,0,0-1.42Zm0,0"/></g></g></svg>