<svg xmlns="http://www.w3.org/2000/svg" viewBox="0 0 37 37"><defs><style>.cls-1{fill:#6e2302;}.cls-2{fill:none;}</style></defs><title>xem</title><g id="Layer_2" data-name="Layer 2"><g id="Layer_1-2" data-name="Layer 1"><path class="cls-1" d="M18.5,28.05c-3.95,0-8.2-1.54-12.29-4.46a31.08,31.08,0,0,1-5-4.44,1,1,0,0,1,0-1.3,31.08,31.08,0,0,1,5-4.44c4.09-2.92,8.34-4.46,12.29-4.46s8.2,1.54,12.29,4.46a31.08,31.08,0,0,1,5,4.44,1,1,0,0,1,0,1.3,31.08,31.08,0,0,1-5,4.44c-4.09,2.92-8.34,4.46-12.29,4.46ZM3.3,18.5A31.3,31.3,0,0,0,7.41,22c2.61,1.85,6.65,4.07,11.09,4.07S27,23.85,29.59,22a31.32,31.32,0,0,0,4.11-3.5A31.33,31.33,0,0,0,29.59,15C27,13.15,22.94,10.93,18.5,10.93S10,13.15,7.41,15a31.33,31.33,0,0,0-4.1,3.5Zm0,0"/><path class="cls-1" d="M18.5,24.65a6.15,6.15,0,1,1,4.05-10.78,1,1,0,0,1-1.31,1.49,4.17,4.17,0,1,0,1.42,3.14,1,1,0,0,1,2,0,6.16,6.16,0,0,1-6.15,6.15Zm0,0"/><path class="cls-1" d="M18.5,20.49a2,2,0,1,1,2-2,2,2,0,0,1-2,2Zm0,0"/><rect class="cls-2" width="37" height="37"/></g></g></svg>