<svg xmlns="http://www.w3.org/2000/svg" viewBox="0 0 13.81 17"><defs><style>.cls-1{fill:#6c492e;}</style></defs><title>xoa1</title><g id="Layer_2" data-name="Layer 2"><g id="Layer_1-2" data-name="Layer 1"><path class="cls-1" d="M9.25,6.16a.4.4,0,0,0-.4.4v7.52a.4.4,0,0,0,.8,0V6.56a.4.4,0,0,0-.4-.4Zm0,0"/><path class="cls-1" d="M4.55,6.16a.4.4,0,0,0-.4.4v7.52a.4.4,0,0,0,.8,0V6.56a.4.4,0,0,0-.4-.4Zm0,0"/><path class="cls-1" d="M1.13,5.06v9.81a2.2,2.2,0,0,0,.58,1.51A2,2,0,0,0,3.14,17h7.53a2,2,0,0,0,1.42-.62,2.2,2.2,0,0,0,.58-1.51V5.06a1.52,1.52,0,0,0-.39-3h-2v-.5A1.56,1.56,0,0,0,8.67,0H5.14A1.56,1.56,0,0,0,3.56,1.57v.5h-2a1.52,1.52,0,0,0-.39,3ZM10.67,16.2H3.14a1.26,1.26,0,0,1-1.21-1.33V5.1h10v9.77a1.26,1.26,0,0,1-1.21,1.33ZM4.36,1.57A.77.77,0,0,1,5.14.8H8.67a.77.77,0,0,1,.78.78v.5H4.36ZM1.52,2.87H12.29a.72.72,0,0,1,0,1.43H1.52a.72.72,0,0,1,0-1.43Zm0,0"/><path class="cls-1" d="M6.9,6.16a.4.4,0,0,0-.4.4v7.52a.4.4,0,1,0,.8,0V6.56a.4.4,0,0,0-.4-.4Zm0,0"/></g></g></svg>