<svg xmlns="http://www.w3.org/2000/svg" viewBox="0 0 39.63 39.63"><defs><style>.cls-1{fill:#ead9c7;}</style></defs><title>youtube</title><g id="Layer_2" data-name="Layer 2"><g id="Layer_1-2" data-name="Layer 1"><path class="cls-1" d="M19.81,0A19.81,19.81,0,1,0,39.63,19.81,19.84,19.84,0,0,0,19.81,0Zm0,36.82a17,17,0,1,1,17-17A17,17,0,0,1,19.81,36.82Z"/><path class="cls-1" d="M23.11,17.38a1.79,1.79,0,0,0,1.31-.76v.67h1.13V11.2H24.42v4.62c-.14.17-.45.46-.67.46s-.3-.16-.3-.41V11.2H22.32v5.09C22.32,16.89,22.51,17.38,23.11,17.38Z"/><path class="cls-1" d="M18.07,15.77a1.46,1.46,0,0,0,1.66,1.63,1.55,1.55,0,0,0,1.63-1.63v-3a1.59,1.59,0,0,0-1.63-1.64,1.56,1.56,0,0,0-1.66,1.64Zm1.17-2.89c0-.33.15-.58.47-.58s.5.24.5.58v2.83c0,.33-.17.58-.47.58a.51.51,0,0,1-.49-.58Z"/><polygon class="cls-1" points="15.37 17.29 16.65 17.29 16.65 13.94 18.13 9.03 16.84 9.03 16.02 12.33 15.14 9.03 13.85 9.03 15.37 13.94 15.37 17.29"/><path class="cls-1" d="M27.08,18.68H13.73a2.6,2.6,0,0,0-2.6,2.6v6.56a2.6,2.6,0,0,0,2.6,2.6H27.08a2.6,2.6,0,0,0,2.6-2.6V21.27A2.6,2.6,0,0,0,27.08,18.68ZM15.51,28.49H14.29V21.77H13V20.62h3.73v1.14H15.51Zm4.32,0H18.75v-.64a2.39,2.39,0,0,1-.62.54c-.58.33-1.38.33-1.38-.85V22.69h1.08v4.45c0,.23.06.39.29.39s.5-.27.63-.43v-4.4h1.08ZM24,27.29c0,.72-.27,1.28-1,1.28A1.23,1.23,0,0,1,22,28v.45H20.88V20.62H22v2.53a1.29,1.29,0,0,1,1-.54c.79,0,1.05.67,1.05,1.45Zm4-1.56H25.91v1.09c0,.44,0,.81.47.81s.48-.31.48-.81v-.4H28v.44c0,1.12-.48,1.8-1.62,1.8s-1.56-.75-1.56-1.8v-2.6a1.59,1.59,0,0,1,1.64-1.71c1,0,1.54.66,1.54,1.71Z"/><path class="cls-1" d="M26.39,23.56c-.4,0-.48.28-.48.68v.59h1v-.59C26.86,23.84,26.78,23.56,26.39,23.56Z"/><path class="cls-1" d="M22.19,23.59a.8.8,0,0,0-.22.18v3.62a.94.94,0,0,0,.26.2.46.46,0,0,0,.55-.06.66.66,0,0,0,.09-.4v-3a.73.73,0,0,0-.12-.45A.45.45,0,0,0,22.19,23.59Z"/></g></g></svg>