<svg xmlns="http://www.w3.org/2000/svg" viewBox="0 0 25 25"><defs><style>.cls-1{fill:#6c492e;}</style></defs><title>zoom</title><g id="Layer_2" data-name="Layer 2"><g id="Layer_1-2" data-name="Layer 1"><path class="cls-1" d="M9.27,15,1,23.22V20.65a.51.51,0,0,0-1,0v3.84A.51.51,0,0,0,.51,25H4.36a.51.51,0,1,0,0-1H1.72L10,15.72A.51.51,0,0,0,9.27,15Zm0,0"/><path class="cls-1" d="M25,24.45V20.65a.51.51,0,0,0-1,0v2.57L15.73,15a.51.51,0,1,0-.73.72L23.28,24H20.64a.51.51,0,1,0,0,1h3.85a.51.51,0,0,0,.51-.51Zm0,0"/><path class="cls-1" d="M9.27,10,1,1.78V4.35a.51.51,0,0,1-1,0V.51A.51.51,0,0,1,.51,0H4.36a.51.51,0,1,1,0,1H1.72L10,9.28a.51.51,0,0,1-.73.72Zm0,0"/><path class="cls-1" d="M25,.55V4.35a.51.51,0,0,1-1,0V1.78L15.73,10A.51.51,0,0,1,15,9.28L23.28,1H20.64a.51.51,0,1,1,0-1h3.85A.51.51,0,0,1,25,.51Zm0,0"/></g></g></svg>